<svg xmlns="http://www.w3.org/2000/svg" xmlns:xlink="http://www.w3.org/1999/xlink" width="1600" zoomAndPan="magnify" viewBox="0 0 1200 749.999995" height="1000" preserveAspectRatio="xMidYMid meet" version="1.0"><path fill="#d9d9d9" d="M 577.460938 700.085938 L 301.5 700.085938 C 301.355469 699.914062 301.058594 699.730469 301.054688 699.542969 C 300.898438 685.203125 300.890625 670.855469 304.683594 656.871094 C 305.714844 653.078125 305.375 649.710938 304.050781 646.035156 C 298.890625 631.636719 294.09375 617.105469 289.035156 602.667969 C 283.398438 586.578125 277.582031 570.546875 271.925781 554.472656 C 263.90625 531.691406 255.917969 508.890625 251.136719 485.132812 C 245.785156 458.539062 242.546875 431.757812 244.640625 404.578125 C 245.484375 393.589844 247.929688 382.902344 252.59375 372.84375 C 254.1875 369.378906 256.183594 366.164062 258.574219 363.191406 C 260.960938 360.21875 263.679688 357.582031 266.71875 355.28125 C 282.421875 343.238281 298.03125 331.070312 313.691406 318.953125 C 318.792969 315.007812 324.207031 311.410156 328.96875 307.097656 C 331.648438 304.671875 333.472656 301.210938 335.367188 298.03125 C 339.824219 290.558594 344.203125 283.027344 348.390625 275.398438 C 350.171875 272.148438 352.644531 270.566406 356.21875 270.886719 C 356.945312 270.953125 358.277344 272.355469 358.148438 272.71875 C 355.949219 278.902344 360.867188 281.753906 364.226562 284.761719 C 379.445312 298.390625 394.242188 312.433594 406.53125 328.835938 C 415.835938 341.253906 425.148438 353.699219 433.804688 366.570312 C 444.101562 381.878906 453.820312 397.585938 463.550781 413.273438 C 467.78125 420.101562 471.40625 427.3125 476 434.175781 C 475.628906 432.75 475.285156 431.316406 474.878906 429.902344 C 470.050781 413.023438 464.664062 396.277344 460.609375 379.21875 C 458.582031 370.703125 454.484375 364.847656 446.503906 360.683594 C 450.371094 353.714844 454.089844 346.847656 458.03125 340.128906 C 458.480469 339.363281 460.363281 338.675781 461.152344 339 C 464.316406 340.300781 468.160156 341.304688 470.195312 343.71875 C 474.960938 349.386719 478.839844 355.800781 483.035156 361.933594 C 483.386719 362.453125 483.398438 363.203125 482.988281 364.160156 L 473.625 352.828125 C 473.625 355.101562 473.53125 356.386719 473.640625 357.667969 C 474.597656 368.890625 477.113281 379.695312 481.039062 390.308594 C 488.46875 410.390625 495.347656 430.664062 502.457031 450.867188 C 507.652344 465.625 512.855469 480.371094 518.304688 495.847656 C 519.625 494.101562 520.613281 492.757812 521.644531 491.445312 C 523.800781 488.707031 525.59375 485.515625 528.238281 483.363281 C 532.367188 480.011719 532.21875 476.617188 530.433594 472.15625 C 515.867188 435.757812 501.554688 399.257812 486.949219 362.875 C 481.007812 348.078125 475.421875 333.199219 472.136719 317.546875 C 472.101562 317.21875 472.101562 316.890625 472.136719 316.5625 C 481.339844 319.949219 490.402344 323.78125 499.761719 326.613281 C 514.75 331.148438 529.90625 335.207031 545.09375 339.066406 C 550.25 340.375 554.644531 342.332031 558.207031 346.316406 C 568.785156 358.15625 578.222656 370.804688 585.8125 384.785156 C 585.972656 385.074219 586.316406 385.261719 587.195312 386.0625 C 587.523438 381.378906 588.347656 377.21875 587.980469 373.148438 C 587.421875 366.847656 590.230469 362.492188 594.546875 358.5625 C 599.304688 354.234375 599.277344 354.179688 596.5 348.460938 C 595.042969 345.460938 594.265625 341.496094 591.890625 339.679688 C 587.386719 336.257812 586.4375 330.851562 583.046875 326.96875 C 582.363281 326.242188 581.558594 325.691406 580.636719 325.3125 C 571.542969 321.363281 563.015625 316.390625 557.324219 308.136719 C 554.785156 304.445312 553.652344 299.582031 552.605469 295.082031 C 549.816406 283.09375 552.578125 272.148438 561.464844 263.722656 C 566.730469 258.734375 573.660156 255.992188 581.386719 255.949219 C 588.460938 255.910156 594.707031 258.238281 600.65625 261.644531 C 602.222656 262.539062 603.5625 263.964844 604.742188 265.367188 C 607.84375 269.058594 611.730469 272.460938 613.601562 276.726562 C 616.753906 283.90625 616.757812 291.847656 615.886719 299.640625 C 615.71875 301.15625 614.753906 302.5625 614.371094 304.074219 C 613.429688 307.761719 614.5625 310.964844 616.253906 314.308594 C 619.335938 320.386719 621.917969 326.722656 624.8125 333.175781 C 627.703125 331.632812 630.023438 330.230469 632.472656 329.128906 C 637.023438 327.078125 641.558594 327.371094 645.566406 330.367188 C 649.683594 333.4375 651.660156 337.757812 650.324219 342.816406 C 649.675781 345.265625 647.785156 347.386719 646.304688 349.941406 C 651.460938 348.421875 657.324219 345.871094 661.359375 351.292969 C 664.757812 355.859375 666.054688 361.414062 662.972656 367.613281 C 667.742188 367.945312 671.789062 370.21875 672.257812 374.9375 C 672.65625 378.914062 671.128906 383.082031 670.453125 387.160156 C 670.542969 387.136719 671.441406 386.898438 672.34375 386.683594 C 675.496094 385.921875 678.011719 386.960938 679.851562 389.542969 C 682.511719 393.277344 682.054688 400.382812 679.710938 404.402344 C 677.207031 408.707031 675.085938 413.164062 670.8125 416.125 C 670.375 416.429688 670.320312 417.738281 670.53125 418.445312 C 671.226562 420.816406 672.234375 423.105469 672.945312 425.476562 C 673.71875 428.0625 676.246094 430.414062 673.796875 433.523438 C 673.285156 434.164062 674.027344 435.90625 674.371094 437.09375 C 675.390625 440.6875 676.800781 444.203125 677.484375 447.859375 C 678.25 451.992188 679.914062 454.699219 684.152344 456.246094 C 687.230469 457.417969 689.835938 459.265625 691.964844 461.78125 C 695.984375 466.609375 701.253906 467.082031 706.777344 467.328125 C 707.027344 467.339844 707.277344 467.316406 707.527344 467.328125 C 717.503906 467.730469 721.796875 471.386719 723.597656 481.371094 C 726.277344 480.21875 728.820312 478.898438 731.5 478 C 736.167969 476.433594 740.777344 474.308594 745.988281 475.910156 C 746.570312 476.089844 748.109375 474.757812 748.457031 473.847656 C 750.5 468.46875 753.800781 464.246094 759.136719 461.929688 C 777.253906 454.074219 790.804688 440.195312 805.023438 427.21875 C 814.226562 418.824219 823.3125 410.292969 832.464844 401.855469 C 833.695312 400.71875 835.066406 399.789062 836.574219 399.066406 C 832.5 406.445312 837.351562 411.054688 841.1875 415.828125 C 853.308594 430.949219 868.183594 443.023438 883.984375 454.042969 C 886.125 455.535156 888.253906 457.074219 890.503906 458.390625 C 891.628906 459.046875 893.019531 459.242188 894.292969 459.648438 C 894.800781 457.738281 896.140625 455.59375 895.660156 453.964844 C 893.976562 448.121094 891.695312 442.453125 889.621094 436.722656 C 888.511719 433.664062 887.371094 430.621094 886.246094 427.566406 L 887.1875 427.042969 C 887.609375 427.347656 888.171875 427.558594 888.433594 427.96875 C 895.339844 438.738281 902.230469 449.519531 909.105469 460.3125 C 910.753906 462.882812 908.558594 463.910156 907.175781 465.15625 C 897.46875 473.929688 887.671875 482.609375 877.984375 491.40625 C 848.367188 518.308594 818.777344 545.234375 789.207031 572.179688 C 783.972656 576.953125 778.832031 581.84375 773.9375 586.96875 C 766.941406 594.320312 758.28125 595.734375 748.886719 594.417969 C 727.359375 591.417969 706.613281 585.3125 686.105469 578.304688 C 685.429688 578.074219 684.699219 577.996094 683.070312 577.652344 C 683.070312 587.460938 683.246094 596.914062 683.035156 606.359375 C 682.34375 636.765625 681.472656 667.171875 680.820312 697.582031 C 680.734375 701.546875 678.074219 700.152344 676.164062 700.492188 C 673.804688 700.914062 672.707031 699.992188 672.761719 697.476562 C 672.992188 688.007812 673.128906 678.53125 673.296875 669.0625 C 673.832031 638.894531 674.308594 608.730469 674.984375 578.566406 C 675.054688 575.449219 673.898438 574.246094 671.230469 573.261719 C 655.234375 567.386719 639.285156 561.378906 623.328125 555.398438 C 621.929688 554.875 620.5625 554.273438 619.199219 553.660156 C 615.074219 551.816406 614.355469 552.238281 614.675781 556.804688 C 616.082031 576.945312 617.582031 597.078125 619 617.214844 C 620.898438 644.199219 622.773438 671.179688 624.625 698.164062 C 624.65625 698.648438 624.625 699.136719 624.625 700.316406 C 622.953125 700.316406 621.40625 700.316406 619.859375 700.316406 C 612.007812 700.34375 604.148438 700.316406 596.296875 700.433594 C 593.992188 700.464844 593.238281 699.789062 592.871094 697.332031 C 589.964844 677.996094 587.105469 658.644531 583.648438 639.402344 C 581.082031 625.074219 577.664062 610.890625 574.613281 596.648438 C 574.46875 595.957031 574.203125 595.304688 573.757812 593.898438 C 569.4375 599.136719 565.429688 603.816406 561.683594 608.695312 C 561.03125 609.542969 561.207031 611.285156 561.453125 612.523438 C 566.371094 637.703125 571.40625 662.855469 576.273438 688.042969 C 577.019531 691.894531 577.066406 695.890625 577.460938 700.085938 Z M 567.578125 445.777344 C 570.363281 447.058594 572.878906 447.707031 574.773438 449.164062 C 584.421875 456.59375 594.277344 463.820312 603.363281 471.902344 C 613.402344 480.832031 622.660156 490.628906 632.332031 499.976562 C 633.253906 500.859375 634.753906 501.789062 635.878906 501.671875 C 638.375 501.40625 640.316406 503.027344 640.449219 505.644531 C 640.53125 507.183594 641.410156 508.683594 642.132812 510.796875 C 645.183594 507.121094 647.234375 504.273438 649.683594 501.824219 C 651.789062 499.722656 651.542969 497.96875 649.785156 496.042969 C 647.683594 493.738281 645.519531 491.515625 643.378906 489.253906 C 628.214844 473.210938 612.597656 457.640625 594.046875 445.46875 C 588.8125 442.03125 582.820312 439.734375 577.105469 437.070312 C 576.34375 436.714844 574.738281 436.90625 574.230469 437.472656 C 571.925781 440.054688 569.875 442.859375 567.578125 445.777344 Z M 565.746094 297.742188 L 567.164062 298.988281 L 593.652344 282.960938 L 593.523438 281.957031 C 592.757812 281.890625 591.910156 281.585938 591.238281 281.800781 C 582.863281 284.457031 575.046875 288.207031 568.378906 294.019531 C 567.265625 295 566.609375 296.496094 565.746094 297.75 Z M 666.902344 448.210938 L 668.15625 447 L 658.203125 434.484375 C 656.078125 436.746094 654.421875 438.507812 652.292969 440.769531 Z M 606.644531 304.949219 L 605.980469 303.644531 C 599.035156 304.707031 592.835938 307.628906 587.199219 311.808594 C 586.617188 312.238281 586.628906 313.472656 586.367188 314.34375 C 587.222656 314.417969 588.230469 314.804688 588.902344 314.503906 C 591.722656 313.210938 594.46875 311.738281 597.203125 310.261719 C 600.390625 308.539062 603.503906 306.730469 606.644531 304.960938 Z M 599.035156 311.5 L 597.421875 312.347656 C 602.671875 322.363281 607.921875 332.378906 613.167969 342.398438 L 614.804688 341.539062 C 609.554688 331.53125 604.300781 321.523438 599.042969 311.511719 Z M 599.035156 311.5 " fill-opacity="1" fill-rule="nonzero"/><path fill="#d9d9d9" d="M 538.703125 80.609375 C 538.875 77.445312 539 75.15625 539.125 72.867188 L 539.953125 72.40625 C 541.757812 75.617188 543.953125 78.675781 545.269531 82.078125 C 547.53125 87.914062 547.757812 94.050781 545.394531 99.929688 C 543.546875 104.496094 540.359375 107.636719 534.882812 107.367188 C 533.929688 107.320312 532.957031 107.667969 531.6875 107.886719 C 532.964844 110.515625 534.28125 112.851562 535.265625 115.324219 C 537.152344 120.050781 539.015625 124.800781 540.589844 129.640625 C 543.316406 138.03125 545.90625 146.464844 548.363281 154.945312 C 549.53125 158.984375 550.441406 163.179688 546.953125 166.753906 C 546.605469 167.109375 546.363281 167.570312 545.996094 167.882812 C 544.570312 169.09375 542.015625 170.167969 541.902344 171.46875 C 541.671875 174.164062 542.101562 177.3125 543.378906 179.667969 C 548.414062 188.957031 553.796875 198.058594 559.238281 207.105469 C 561.050781 210.121094 561.921875 213.0625 560.210938 216.21875 C 558.367188 219.597656 555.304688 221.03125 551.476562 220.851562 C 550.976562 220.828125 550.480469 220.804688 549.980469 220.789062 C 543.988281 220.59375 543.742188 221.3125 545.207031 227.1875 C 546.023438 230.597656 546.117188 234.023438 545.488281 237.46875 C 544.589844 242.3125 541.964844 243.949219 537.011719 244.195312 C 533.277344 244.375 529.195312 243.648438 526.988281 247.367188 C 529.585938 247.800781 532.292969 247.929688 534.769531 248.738281 C 538.917969 250.09375 540.195312 253.675781 540.269531 257.621094 C 540.335938 261.175781 539.214844 264.125 535.398438 265.574219 C 532.71875 266.589844 531.5 270.308594 532.523438 273.496094 C 534.953125 281.050781 533.90625 287.804688 527.863281 293.292969 C 526.628906 294.410156 524.917969 295.492188 523.335938 295.652344 C 514.453125 296.542969 505.636719 298.210938 496.585938 296.851562 C 490.738281 295.972656 484.695312 295.003906 478.964844 297.898438 C 476.074219 299.355469 473.996094 301.195312 473.320312 304.695312 C 471.0625 316.425781 465.558594 326.800781 459.257812 337.179688 C 445.851562 319.738281 427.242188 309.140625 409.761719 297.125 C 396.113281 287.75 382.515625 278.296875 368.960938 268.765625 C 367.164062 267.5 365.671875 265.71875 364.253906 264 C 362.460938 261.820312 363.101562 259.558594 365.941406 259.050781 C 369.929688 258.339844 370.90625 255.988281 370.835938 252.429688 C 370.738281 247.570312 370.875 242.710938 370.851562 237.847656 C 370.851562 237.179688 370.695312 236.085938 370.300781 235.914062 C 366.707031 234.367188 367.644531 231.191406 367.089844 228.320312 C 364.46875 214.6875 362.867188 200.820312 356.230469 188.171875 C 347.3125 171.171875 343.007812 152.851562 344.984375 133.722656 C 346.296875 121.007812 349.957031 108.667969 356.375 97.304688 C 359.394531 91.898438 362.992188 86.910156 367.164062 82.335938 C 371.335938 77.761719 375.972656 73.722656 381.074219 70.214844 C 391.171875 63.257812 401.28125 56.335938 413.464844 53.058594 C 429.582031 48.722656 445.644531 48.445312 461.90625 51.820312 C 476.273438 54.808594 490.660156 57.683594 505.074219 60.441406 C 508.242188 61.042969 511.582031 61.027344 514.828125 60.902344 C 521.316406 60.671875 532.3125 67.820312 534.722656 73.851562 C 535.566406 75.976562 537.035156 77.835938 538.703125 80.609375 Z M 538.703125 80.609375 " fill-opacity="1" fill-rule="nonzero"/><path fill="#d9d9d9" d="M 878.539062 439.3125 C 873.25 434.527344 868.0625 430.425781 863.59375 425.652344 C 857.664062 419.316406 852.109375 412.601562 846.761719 405.757812 C 844.019531 402.242188 843.496094 398.398438 846.425781 394.046875 C 847.710938 392.144531 847.371094 388.355469 846.453125 385.917969 C 844.046875 379.515625 844.109375 373.3125 846.039062 366.910156 C 846.71875 364.65625 847.0625 362.296875 847.421875 359.96875 C 848.269531 354.667969 849.835938 349.800781 852.582031 345 C 857.855469 335.777344 859.195312 325.265625 860.421875 314.871094 C 860.902344 310.800781 860.988281 306.664062 860.964844 302.558594 C 860.945312 299.644531 862.347656 298.21875 864.914062 297.488281 C 870.558594 295.871094 876.941406 300.171875 879.128906 306.660156 C 881.984375 315.125 882.179688 323.394531 878.921875 331.828125 C 877.578125 335.3125 877.117188 339.140625 876.253906 342.808594 L 877.21875 343.203125 C 877.753906 342.632812 878.25 342.027344 878.820312 341.503906 C 883.121094 337.585938 887.097656 333.179688 891.851562 329.910156 C 896.128906 326.96875 899.84375 323.765625 902.972656 319.652344 C 906.285156 315.296875 910.214844 311.402344 913.417969 306.96875 C 917.6875 301.058594 921.464844 294.789062 925.558594 288.742188 C 928.417969 284.523438 931.28125 280.28125 934.488281 276.335938 C 935.910156 274.585938 938.042969 273.21875 940.113281 272.234375 C 943.859375 270.457031 945.855469 271.109375 947.859375 274.730469 C 948.84375 276.5 949.828125 277.152344 951.882812 277.132812 C 955.382812 277.097656 957.457031 280.304688 955.625 283.335938 C 951.933594 289.433594 952.828125 296.144531 952.894531 302.546875 C 953.019531 314.230469 951.257812 325.160156 945.515625 335.550781 C 941.621094 342.601562 938.460938 350.101562 935.523438 357.617188 C 930.582031 370.265625 921.78125 380.316406 913.980469 391.070312 C 906.472656 401.480469 898.535156 411.40625 889.214844 420.386719 C 884.855469 424.582031 882.8125 431.191406 879.734375 436.714844 C 879.4375 437.21875 879.226562 437.804688 878.539062 439.3125 Z M 878.539062 439.3125 " fill-opacity="1" fill-rule="nonzero"/></svg>