<svg xmlns="http://www.w3.org/2000/svg" xmlns:xlink="http://www.w3.org/1999/xlink" width="1600" zoomAndPan="magnify" viewBox="0 0 1200 749.999995" height="1000" preserveAspectRatio="xMidYMid meet" version="1.0"><defs><g/><clipPath id="cc6eb5380f"><path d="M 343.054688 353 L 360 353 L 360 428.480469 L 343.054688 428.480469 Z M 343.054688 353 " clip-rule="nonzero"/></clipPath><clipPath id="4eef69c3c4"><path d="M 587 128.480469 L 604 128.480469 L 604 195 L 587 195 Z M 587 128.480469 " clip-rule="nonzero"/></clipPath><clipPath id="6426c5808e"><path d="M 611 129 L 628.804688 129 L 628.804688 163 L 611 163 Z M 611 129 " clip-rule="nonzero"/></clipPath><clipPath id="18294fb2cb"><path d="M 307 353.277344 L 325.183594 353.277344 L 325.183594 419 L 307 419 Z M 307 353.277344 " clip-rule="nonzero"/></clipPath><clipPath id="f831d0eac4"><path d="M 12.433594 574 L 32 574 L 32 653.277344 L 12.433594 653.277344 Z M 12.433594 574 " clip-rule="nonzero"/></clipPath><clipPath id="9df9dfdb29"><path d="M 898 382 L 914.503906 382 L 914.503906 457.570312 L 898 457.570312 Z M 898 382 " clip-rule="nonzero"/></clipPath><clipPath id="f2b2e02080"><path d="M 653 157.570312 L 671 157.570312 L 671 224 L 653 224 Z M 653 157.570312 " clip-rule="nonzero"/></clipPath><clipPath id="21de47a366"><path d="M 628.753906 159 L 647 159 L 647 192 L 628.753906 192 Z M 628.753906 159 " clip-rule="nonzero"/></clipPath><clipPath id="4b49fc33d2"><path d="M 1183 182.300781 L 1200 182.300781 L 1200 257 L 1183 257 Z M 1183 182.300781 " clip-rule="nonzero"/></clipPath><clipPath id="c088b79e35"><path d="M 939 416 L 956 416 L 956 482.300781 L 939 482.300781 Z M 939 416 " clip-rule="nonzero"/></clipPath><clipPath id="8247c03003"><path d="M 914.386719 448 L 932 448 L 932 481 L 914.386719 481 Z M 914.386719 448 " clip-rule="nonzero"/></clipPath></defs><g clip-path="url(#cc6eb5380f)"><path fill="#33cc33" d="M 343.054688 398.636719 L 350.472656 398.636719 L 350.472656 428.476562 L 352.0625 428.476562 L 352.0625 398.636719 L 359.480469 398.636719 L 359.480469 360.851562 L 352.0625 360.851562 L 352.0625 353.964844 L 350.472656 353.964844 L 350.472656 360.851562 L 343.054688 360.851562 Z M 343.054688 398.636719 " fill-opacity="1" fill-rule="evenodd"/></g><path fill="#33cc33" d="M 366.898438 360.851562 L 374.847656 360.851562 L 374.847656 364.382812 L 376.613281 364.382812 L 376.613281 360.851562 L 384.382812 360.851562 L 384.382812 297.285156 L 376.613281 297.285156 L 376.613281 287.925781 L 374.847656 287.925781 L 374.847656 297.285156 L 366.898438 297.285156 Z M 366.898438 360.851562 " fill-opacity="1" fill-rule="evenodd"/><path fill="#33cc33" d="M 391.445312 296.402344 L 408.929688 296.402344 L 408.929688 206.527344 L 400.984375 206.527344 L 400.984375 147.730469 L 399.21875 147.730469 L 399.21875 206.527344 L 391.445312 206.527344 Z M 391.445312 296.402344 " fill-opacity="1" fill-rule="evenodd"/><path fill="#33cc33" d="M 415.820312 205.644531 L 423.765625 205.644531 L 423.765625 228.953125 L 425.355469 228.953125 L 425.355469 205.644531 L 433.300781 205.644531 L 433.300781 200.523438 L 425.355469 200.523438 L 425.355469 181.808594 L 423.765625 181.808594 L 423.765625 200.523438 L 415.820312 200.523438 Z M 415.820312 205.644531 " fill-opacity="1" fill-rule="evenodd"/><path fill="#33cc33" d="M 440.191406 200.878906 L 448.136719 200.878906 L 448.136719 187.636719 L 449.902344 187.636719 L 449.902344 200.878906 L 457.675781 200.878906 L 457.675781 222.066406 L 449.902344 222.066406 L 449.902344 225.773438 L 448.136719 225.773438 L 448.136719 222.066406 L 440.191406 222.066406 Z M 440.191406 200.878906 " fill-opacity="1" fill-rule="evenodd"/><path fill="#ff0000" d="M 465.269531 251.554688 L 472.507812 251.554688 L 472.507812 267.089844 L 474.277344 267.089844 L 474.277344 251.554688 L 481.691406 251.554688 L 481.691406 223.65625 L 474.277344 223.65625 L 474.277344 212 L 472.507812 212 L 472.507812 223.65625 L 465.269531 223.65625 Z M 465.269531 251.554688 " fill-opacity="1" fill-rule="evenodd"/><path fill="#33cc33" d="M 489.109375 251.199219 L 497.058594 251.199219 L 497.058594 262.324219 L 498.648438 262.324219 L 498.648438 251.199219 L 506.59375 251.199219 L 506.59375 223.300781 L 498.648438 223.300781 L 498.648438 216.769531 L 497.058594 216.769531 L 497.058594 223.300781 L 489.109375 223.300781 Z M 489.109375 251.199219 " fill-opacity="1" fill-rule="evenodd"/><path fill="#ff0000" d="M 513.480469 237.605469 L 521.429688 237.605469 L 521.429688 250.140625 L 523.195312 250.140625 L 523.195312 237.605469 L 530.964844 237.605469 L 530.964844 223.300781 L 523.195312 223.300781 L 523.195312 201.585938 L 521.429688 201.585938 L 521.429688 223.300781 L 513.480469 223.300781 Z M 513.480469 237.605469 " fill-opacity="1" fill-rule="evenodd"/><path fill="#33cc33" d="M 538.03125 212.53125 L 545.800781 212.53125 L 545.800781 203.351562 L 547.566406 203.351562 L 547.566406 212.53125 L 555.515625 212.53125 L 555.515625 238.664062 L 547.566406 238.664062 L 547.566406 245.726562 L 545.800781 245.726562 L 545.800781 238.664062 L 538.03125 238.664062 Z M 538.03125 212.53125 " fill-opacity="1" fill-rule="evenodd"/><path fill="#33cc33" d="M 562.402344 194.699219 L 570.351562 194.699219 L 570.351562 177.394531 L 571.9375 177.394531 L 571.9375 194.699219 L 579.886719 194.699219 L 579.886719 210.234375 L 571.9375 210.234375 L 571.9375 212.179688 L 570.351562 212.179688 L 570.351562 210.234375 L 562.402344 210.234375 Z M 562.402344 194.699219 " fill-opacity="1" fill-rule="evenodd"/><g clip-path="url(#4eef69c3c4)"><path fill="#33cc33" d="M 587.480469 134.132812 L 594.722656 134.132812 L 594.722656 128.484375 L 596.488281 128.484375 L 596.488281 134.132812 L 603.726562 134.132812 L 603.726562 194.699219 L 587.480469 194.699219 Z M 587.480469 134.132812 " fill-opacity="1" fill-rule="evenodd"/></g><g clip-path="url(#6426c5808e)"><path fill="#ff0000" d="M 611.324219 148.257812 L 619.269531 148.257812 L 619.269531 162.386719 L 620.859375 162.386719 L 620.859375 148.257812 L 628.804688 148.257812 L 628.804688 133.957031 L 620.859375 133.957031 L 620.859375 129.894531 L 619.269531 129.894531 L 619.269531 133.957031 L 611.324219 133.957031 Z M 611.324219 148.257812 " fill-opacity="1" fill-rule="evenodd"/></g><g clip-path="url(#18294fb2cb)"><path fill="#ff0000" d="M 325.183594 391.082031 L 317.167969 391.082031 L 317.167969 353.28125 L 315.304688 353.28125 L 315.304688 391.082031 L 307.292969 391.082031 L 307.292969 418.828125 L 325.183594 418.828125 Z M 325.183594 391.082031 " fill-opacity="1" fill-rule="evenodd"/></g><path fill="#33cc33" d="M 299.089844 388.660156 L 290.515625 388.660156 L 290.515625 386.242188 L 288.652344 386.242188 L 288.652344 388.660156 L 279.894531 388.660156 L 279.894531 444.152344 L 299.089844 444.152344 Z M 299.089844 388.660156 " fill-opacity="1" fill-rule="evenodd"/><path fill="#33cc33" d="M 272.25 466.871094 L 263.679688 466.871094 L 263.679688 481.769531 L 261.8125 481.769531 L 261.8125 466.871094 L 253.242188 466.871094 L 253.242188 442.105469 L 261.8125 442.105469 L 261.8125 426.460938 L 263.679688 426.460938 L 263.679688 442.105469 L 272.25 442.105469 Z M 272.25 466.871094 " fill-opacity="1" fill-rule="evenodd"/><path fill="#33cc33" d="M 245.597656 489.402344 L 236.839844 489.402344 L 236.839844 496.480469 L 235.160156 496.480469 L 235.160156 489.402344 L 226.402344 489.402344 L 226.402344 467.058594 L 235.160156 467.058594 L 235.160156 458.492188 L 236.839844 458.492188 L 236.839844 467.058594 L 245.597656 467.058594 Z M 245.597656 489.402344 " fill-opacity="1" fill-rule="evenodd"/><path fill="#33cc33" d="M 218.757812 492.382812 L 210.1875 492.382812 L 210.1875 465.753906 L 208.320312 465.753906 L 208.320312 492.382812 L 199.75 492.382812 L 199.75 508.398438 L 208.320312 508.398438 L 208.320312 535.027344 L 210.1875 535.027344 L 210.1875 508.398438 L 218.757812 508.398438 Z M 218.757812 492.382812 " fill-opacity="1" fill-rule="evenodd"/><path fill="#ff0000" d="M 191.546875 507.839844 L 183.347656 507.839844 L 183.347656 481.394531 L 181.667969 481.394531 L 181.667969 507.839844 L 173.46875 507.839844 L 173.46875 511.003906 L 181.667969 511.003906 L 181.667969 520.128906 L 183.347656 520.128906 L 183.347656 511.003906 L 191.546875 511.003906 Z M 191.546875 507.839844 " fill-opacity="1" fill-rule="evenodd"/><path fill="#33cc33" d="M 165.269531 509.140625 L 146.257812 509.140625 L 146.257812 539.121094 L 154.832031 539.121094 L 154.832031 576.367188 L 156.695312 576.367188 L 156.695312 539.121094 L 165.269531 539.121094 Z M 165.269531 509.140625 " fill-opacity="1" fill-rule="evenodd"/><path fill="#ff0000" d="M 138.613281 512.679688 L 129.855469 512.679688 L 129.855469 493.6875 L 128.179688 493.6875 L 128.179688 512.679688 L 119.417969 512.679688 L 119.417969 536.144531 L 128.179688 536.144531 L 128.179688 538.5625 L 129.855469 538.5625 L 129.855469 536.144531 L 138.613281 536.144531 Z M 138.613281 512.679688 " fill-opacity="1" fill-rule="evenodd"/><path fill="#33cc33" d="M 111.777344 514.171875 L 92.765625 514.171875 L 92.765625 510.445312 L 101.339844 510.445312 L 101.339844 497.597656 L 103.203125 497.597656 L 103.203125 510.445312 L 111.777344 510.445312 Z M 111.777344 514.171875 " fill-opacity="1" fill-rule="evenodd"/><path fill="#33cc33" d="M 85.125 572.457031 L 76.363281 572.457031 L 76.363281 579.160156 L 74.5 579.160156 L 74.5 572.457031 L 65.925781 572.457031 L 65.925781 510.816406 L 85.125 510.816406 Z M 85.125 572.457031 " fill-opacity="1" fill-rule="evenodd"/><path fill="#33cc33" d="M 57.726562 592.9375 L 49.710938 592.9375 L 49.710938 617.890625 L 47.847656 617.890625 L 47.847656 592.9375 L 39.832031 592.9375 L 39.832031 573.945312 L 47.847656 573.945312 L 47.847656 562.585938 L 49.710938 562.585938 L 49.710938 573.945312 L 57.726562 573.945312 Z M 57.726562 592.9375 " fill-opacity="1" fill-rule="evenodd"/><g clip-path="url(#f831d0eac4)"><path fill="#33cc33" d="M 31.632812 593.871094 L 22.871094 593.871094 L 22.871094 574.316406 L 21.007812 574.316406 L 21.007812 593.871094 L 12.433594 593.871094 L 12.433594 649.734375 L 21.007812 649.734375 L 21.007812 653.273438 L 22.871094 653.273438 L 22.871094 649.734375 L 31.632812 649.734375 Z M 31.632812 593.871094 " fill-opacity="1" fill-rule="evenodd"/></g><g clip-path="url(#9df9dfdb29)"><path fill="#ff0000" d="M 914.503906 427.679688 L 907.316406 427.679688 L 907.316406 457.566406 L 905.59375 457.566406 L 905.59375 427.679688 L 898.117188 427.679688 L 898.117188 390.039062 L 905.59375 390.039062 L 905.59375 382.855469 L 907.316406 382.855469 L 907.316406 390.039062 L 914.503906 390.039062 Z M 914.503906 427.679688 " fill-opacity="1" fill-rule="evenodd"/></g><path fill="#ff0000" d="M 890.644531 390.039062 L 882.882812 390.039062 L 882.882812 393.488281 L 881.15625 393.488281 L 881.15625 390.039062 L 873.109375 390.039062 L 873.109375 326.246094 L 881.15625 326.246094 L 881.15625 317.054688 L 882.882812 317.054688 L 882.882812 326.246094 L 890.644531 326.246094 Z M 890.644531 390.039062 " fill-opacity="1" fill-rule="evenodd"/><path fill="#ff0000" d="M 866.207031 325.671875 L 848.671875 325.671875 L 848.671875 235.734375 L 856.722656 235.734375 L 856.722656 176.828125 L 858.445312 176.828125 L 858.445312 235.734375 L 866.207031 235.734375 Z M 866.207031 325.671875 " fill-opacity="1" fill-rule="evenodd"/><path fill="#ff0000" d="M 841.773438 234.871094 L 834.011719 234.871094 L 834.011719 258.148438 L 832.285156 258.148438 L 832.285156 234.871094 L 824.238281 234.871094 L 824.238281 229.699219 L 832.285156 229.699219 L 832.285156 211.023438 L 834.011719 211.023438 L 834.011719 229.699219 L 841.773438 229.699219 Z M 841.773438 234.871094 " fill-opacity="1" fill-rule="evenodd"/><path fill="#ff0000" d="M 817.335938 229.988281 L 809.289062 229.988281 L 809.289062 216.769531 L 807.851562 216.769531 L 807.851562 229.988281 L 799.800781 229.988281 L 799.800781 251.25 L 807.851562 251.25 L 807.851562 254.699219 L 809.289062 254.699219 L 809.289062 251.25 L 817.335938 251.25 Z M 817.335938 229.988281 " fill-opacity="1" fill-rule="evenodd"/><path fill="#33cc33" d="M 792.328125 280.847656 L 784.851562 280.847656 L 784.851562 296.078125 L 783.414062 296.078125 L 783.414062 280.847656 L 775.941406 280.847656 L 775.941406 252.6875 L 783.414062 252.6875 L 783.414062 241.195312 L 784.851562 241.195312 L 784.851562 252.6875 L 792.328125 252.6875 Z M 792.328125 280.847656 " fill-opacity="1" fill-rule="evenodd"/><path fill="#ff0000" d="M 768.464844 280.273438 L 760.417969 280.273438 L 760.417969 291.480469 L 758.980469 291.480469 L 758.980469 280.273438 L 750.929688 280.273438 L 750.929688 252.398438 L 758.980469 252.398438 L 758.980469 245.792969 L 760.417969 245.792969 L 760.417969 252.398438 L 768.464844 252.398438 Z M 768.464844 280.273438 " fill-opacity="1" fill-rule="evenodd"/><path fill="#33cc33" d="M 744.03125 266.769531 L 735.980469 266.769531 L 735.980469 279.410156 L 734.542969 279.410156 L 734.542969 266.769531 L 726.496094 266.769531 L 726.496094 252.398438 L 734.542969 252.398438 L 734.542969 230.5625 L 735.980469 230.5625 L 735.980469 252.398438 L 744.03125 252.398438 Z M 744.03125 266.769531 " fill-opacity="1" fill-rule="evenodd"/><path fill="#ff0000" d="M 719.597656 241.480469 L 711.546875 241.480469 L 711.546875 232.574219 L 710.109375 232.574219 L 710.109375 241.480469 L 702.058594 241.480469 L 702.058594 267.917969 L 710.109375 267.917969 L 710.109375 274.8125 L 711.546875 274.8125 L 711.546875 267.917969 L 719.597656 267.917969 Z M 719.597656 241.480469 " fill-opacity="1" fill-rule="evenodd"/><path fill="#ff0000" d="M 695.160156 223.953125 L 687.113281 223.953125 L 687.113281 206.425781 L 685.675781 206.425781 L 685.675781 223.953125 L 677.625 223.953125 L 677.625 239.46875 L 685.675781 239.46875 L 685.675781 241.195312 L 687.113281 241.195312 L 687.113281 239.46875 L 695.160156 239.46875 Z M 695.160156 223.953125 " fill-opacity="1" fill-rule="evenodd"/><g clip-path="url(#f2b2e02080)"><path fill="#ff0000" d="M 670.148438 163.324219 L 662.675781 163.324219 L 662.675781 157.578125 L 661.238281 157.578125 L 661.238281 163.324219 L 653.765625 163.324219 L 653.765625 223.664062 L 670.148438 223.664062 Z M 670.148438 163.324219 " fill-opacity="1" fill-rule="evenodd"/></g><g clip-path="url(#21de47a366)"><path fill="#33cc33" d="M 646.289062 177.402344 L 638.242188 177.402344 L 638.242188 191.484375 L 636.804688 191.484375 L 636.804688 177.402344 L 628.753906 177.402344 L 628.753906 163.035156 L 636.804688 163.035156 L 636.804688 159.011719 L 638.242188 159.011719 L 638.242188 163.035156 L 646.289062 163.035156 Z M 646.289062 177.402344 " fill-opacity="1" fill-rule="evenodd"/></g><g clip-path="url(#4b49fc33d2)"><path fill="#33cc33" d="M 1200.136719 212.226562 L 1192.84375 212.226562 L 1192.84375 182.304688 L 1191.117188 182.304688 L 1191.117188 212.226562 L 1183.824219 212.226562 L 1183.824219 250.015625 L 1191.117188 250.015625 L 1191.117188 256.917969 L 1192.84375 256.917969 L 1192.84375 250.015625 L 1200.136719 250.015625 Z M 1200.136719 212.226562 " fill-opacity="1" fill-rule="evenodd"/></g><path fill="#33cc33" d="M 1176.339844 250.015625 L 1168.28125 250.015625 L 1168.28125 246.5625 L 1166.746094 246.5625 L 1166.746094 250.015625 L 1158.875 250.015625 L 1158.875 313.503906 L 1166.746094 313.503906 L 1166.746094 322.902344 L 1168.28125 322.902344 L 1168.28125 313.503906 L 1176.339844 313.503906 Z M 1176.339844 250.015625 " fill-opacity="1" fill-rule="evenodd"/><path fill="#33cc33" d="M 1151.777344 314.269531 C 1146.019531 314.269531 1140.070312 314.269531 1134.3125 314.269531 L 1134.3125 404.230469 L 1142.179688 404.230469 L 1142.179688 463.117188 L 1143.90625 463.117188 L 1143.90625 404.230469 L 1151.777344 404.230469 Z M 1151.777344 314.269531 " fill-opacity="1" fill-rule="evenodd"/><path fill="#33cc33" d="M 1127.402344 405.191406 L 1119.535156 405.191406 L 1119.535156 381.789062 L 1117.808594 381.789062 L 1117.808594 405.191406 L 1109.941406 405.191406 L 1109.941406 410.371094 L 1117.808594 410.371094 L 1117.808594 428.976562 L 1119.535156 428.976562 L 1119.535156 410.371094 L 1127.402344 410.371094 Z M 1127.402344 405.191406 " fill-opacity="1" fill-rule="evenodd"/><path fill="#33cc33" d="M 1103.03125 409.984375 L 1094.972656 409.984375 L 1094.972656 423.027344 L 1093.4375 423.027344 L 1093.4375 409.984375 L 1085.566406 409.984375 L 1085.566406 388.695312 L 1093.4375 388.695312 L 1093.4375 385.050781 L 1094.972656 385.050781 L 1094.972656 388.695312 L 1103.03125 388.695312 Z M 1103.03125 409.984375 " fill-opacity="1" fill-rule="evenodd"/><path fill="#ff0000" d="M 1077.890625 359.15625 L 1070.597656 359.15625 L 1070.597656 343.808594 L 1068.871094 343.808594 L 1068.871094 359.15625 L 1061.578125 359.15625 L 1061.578125 387.160156 L 1068.871094 387.160156 L 1068.871094 398.667969 L 1070.597656 398.667969 L 1070.597656 387.160156 L 1077.890625 387.160156 Z M 1077.890625 359.15625 " fill-opacity="1" fill-rule="evenodd"/><path fill="#33cc33" d="M 1054.09375 359.539062 L 1046.226562 359.539062 L 1046.226562 348.605469 L 1044.5 348.605469 L 1044.5 359.539062 L 1036.632812 359.539062 L 1036.632812 387.542969 L 1044.5 387.542969 L 1044.5 394.066406 L 1046.226562 394.066406 L 1046.226562 387.542969 L 1054.09375 387.542969 Z M 1054.09375 359.539062 " fill-opacity="1" fill-rule="evenodd"/><path fill="#ff0000" d="M 1029.722656 373.15625 L 1021.664062 373.15625 L 1021.664062 360.496094 L 1020.128906 360.496094 L 1020.128906 373.15625 L 1012.066406 373.15625 L 1012.066406 387.542969 L 1020.128906 387.542969 L 1020.128906 409.21875 L 1021.664062 409.21875 L 1021.664062 387.542969 L 1029.722656 387.542969 Z M 1029.722656 373.15625 " fill-opacity="1" fill-rule="evenodd"/><path fill="#33cc33" d="M 1005.160156 398.285156 L 997.289062 398.285156 L 997.289062 407.300781 L 995.5625 407.300781 L 995.5625 398.285156 L 987.695312 398.285156 L 987.695312 372.007812 L 995.5625 372.007812 L 995.5625 365.101562 L 997.289062 365.101562 L 997.289062 372.007812 L 1005.160156 372.007812 Z M 1005.160156 398.285156 " fill-opacity="1" fill-rule="evenodd"/><path fill="#33cc33" d="M 980.785156 415.933594 L 972.917969 415.933594 L 972.917969 433.386719 L 971.191406 433.386719 L 971.191406 415.933594 L 963.324219 415.933594 L 963.324219 400.394531 L 971.191406 400.394531 L 971.191406 398.476562 L 972.917969 398.476562 L 972.917969 400.394531 L 980.785156 400.394531 Z M 980.785156 415.933594 " fill-opacity="1" fill-rule="evenodd"/><g clip-path="url(#c088b79e35)"><path fill="#33cc33" d="M 955.839844 476.738281 L 948.355469 476.738281 L 948.355469 482.300781 L 946.820312 482.300781 L 946.820312 476.738281 L 939.335938 476.738281 L 939.335938 416.125 L 955.839844 416.125 Z M 955.839844 476.738281 " fill-opacity="1" fill-rule="evenodd"/></g><g clip-path="url(#8247c03003)"><path fill="#ff0000" d="M 931.851562 462.542969 L 923.980469 462.542969 L 923.980469 448.539062 L 922.253906 448.539062 L 922.253906 462.542969 L 914.386719 462.542969 L 914.386719 476.738281 L 922.253906 476.738281 L 922.253906 480.765625 L 923.980469 480.765625 L 923.980469 476.738281 L 931.851562 476.738281 Z M 931.851562 462.542969 " fill-opacity="1" fill-rule="evenodd"/></g><g fill="#33cc33" fill-opacity="1"><g transform="translate(577.280016, 106.451984)"><g><path d="M 6.484375 -16.9375 C 8.703125 -16.9375 10.40625 -16.203125 11.59375 -14.734375 C 12.78125 -13.273438 13.375 -11.210938 13.375 -8.546875 C 13.375 -6.671875 13.050781 -5.082031 12.40625 -3.78125 C 11.769531 -2.488281 10.875 -1.507812 9.71875 -0.84375 C 8.5625 -0.1875 7.21875 0.140625 5.6875 0.140625 C 4.019531 0.140625 2.691406 -0.160156 1.703125 -0.765625 L 2.40625 -2.15625 C 3.195312 -1.632812 4.28125 -1.375 5.65625 -1.375 C 7.519531 -1.375 8.976562 -1.957031 10.03125 -3.125 C 11.082031 -4.300781 11.609375 -6.007812 11.609375 -8.25 C 11.609375 -8.664062 11.585938 -9.125 11.546875 -9.625 C 11.128906 -8.707031 10.460938 -8 9.546875 -7.5 C 8.640625 -7 7.59375 -6.75 6.40625 -6.75 C 5.300781 -6.75 4.320312 -6.953125 3.46875 -7.359375 C 2.613281 -7.773438 1.945312 -8.363281 1.46875 -9.125 C 0.988281 -9.882812 0.75 -10.769531 0.75 -11.78125 C 0.75 -12.800781 0.992188 -13.703125 1.484375 -14.484375 C 1.984375 -15.273438 2.664062 -15.878906 3.53125 -16.296875 C 4.40625 -16.722656 5.390625 -16.9375 6.484375 -16.9375 Z M 6.671875 -8.203125 C 7.515625 -8.203125 8.257812 -8.363281 8.90625 -8.6875 C 9.5625 -9.007812 10.070312 -9.445312 10.4375 -10 C 10.800781 -10.5625 10.984375 -11.1875 10.984375 -11.875 C 10.984375 -12.519531 10.8125 -13.113281 10.46875 -13.65625 C 10.125 -14.195312 9.613281 -14.632812 8.9375 -14.96875 C 8.269531 -15.3125 7.472656 -15.484375 6.546875 -15.484375 C 5.335938 -15.484375 4.351562 -15.148438 3.59375 -14.484375 C 2.832031 -13.816406 2.453125 -12.929688 2.453125 -11.828125 C 2.453125 -10.722656 2.832031 -9.84375 3.59375 -9.1875 C 4.351562 -8.53125 5.378906 -8.203125 6.671875 -8.203125 Z M 6.671875 -8.203125 "/></g></g></g><g fill="#33cc33" fill-opacity="1"><g transform="translate(591.896043, 106.451984)"><g><path d="M 15.53125 -4.421875 L 12.171875 -4.421875 L 12.171875 0 L 10.4375 0 L 10.4375 -4.421875 L 0.953125 -4.421875 L 0.953125 -5.65625 L 9.859375 -16.796875 L 11.78125 -16.796875 L 3.1875 -5.953125 L 10.484375 -5.953125 L 10.484375 -9.84375 L 12.171875 -9.84375 L 12.171875 -5.953125 L 15.53125 -5.953125 Z M 15.53125 -4.421875 "/></g></g></g><g fill="#33cc33" fill-opacity="1"><g transform="translate(608.240071, 106.451984)"><g><path d="M 2.546875 0.125 C 2.191406 0.125 1.890625 0 1.640625 -0.25 C 1.390625 -0.507812 1.265625 -0.828125 1.265625 -1.203125 C 1.265625 -1.566406 1.390625 -1.875 1.640625 -2.125 C 1.890625 -2.375 2.191406 -2.5 2.546875 -2.5 C 2.898438 -2.5 3.203125 -2.375 3.453125 -2.125 C 3.710938 -1.875 3.84375 -1.566406 3.84375 -1.203125 C 3.84375 -0.828125 3.710938 -0.507812 3.453125 -0.25 C 3.203125 0 2.898438 0.125 2.546875 0.125 Z M 2.546875 0.125 "/></g></g></g><g fill="#33cc33" fill-opacity="1"><g transform="translate(613.568085, 106.451984)"><g><path d="M 6.953125 -9.59375 C 8.710938 -9.5 10.050781 -9.023438 10.96875 -8.171875 C 11.894531 -7.316406 12.359375 -6.203125 12.359375 -4.828125 C 12.359375 -3.867188 12.125 -3.015625 11.65625 -2.265625 C 11.195312 -1.523438 10.507812 -0.9375 9.59375 -0.5 C 8.6875 -0.0703125 7.578125 0.140625 6.265625 0.140625 C 5.046875 0.140625 3.894531 -0.0507812 2.8125 -0.4375 C 1.738281 -0.832031 0.875 -1.359375 0.21875 -2.015625 L 1.0625 -3.390625 C 1.613281 -2.804688 2.351562 -2.332031 3.28125 -1.96875 C 4.21875 -1.613281 5.210938 -1.4375 6.265625 -1.4375 C 7.640625 -1.4375 8.703125 -1.734375 9.453125 -2.328125 C 10.203125 -2.929688 10.578125 -3.765625 10.578125 -4.828125 C 10.578125 -5.867188 10.203125 -6.679688 9.453125 -7.265625 C 8.703125 -7.859375 7.566406 -8.15625 6.046875 -8.15625 L 4.84375 -8.15625 L 4.84375 -9.4375 L 9.5 -15.265625 L 0.90625 -15.265625 L 0.90625 -16.796875 L 11.71875 -16.796875 L 11.71875 -15.578125 Z M 6.953125 -9.59375 "/></g></g></g><g fill="#33cc33" fill-opacity="1"><g transform="translate(626.984108, 106.451984)"><g><path d="M 12.71875 -1.53125 L 12.71875 0 L 0.9375 0 L 0.9375 -1.21875 L 7.921875 -8.0625 C 8.796875 -8.925781 9.390625 -9.671875 9.703125 -10.296875 C 10.015625 -10.929688 10.171875 -11.570312 10.171875 -12.21875 C 10.171875 -13.207031 9.832031 -13.976562 9.15625 -14.53125 C 8.476562 -15.082031 7.503906 -15.359375 6.234375 -15.359375 C 4.265625 -15.359375 2.738281 -14.734375 1.65625 -13.484375 L 0.4375 -14.546875 C 1.09375 -15.316406 1.925781 -15.90625 2.9375 -16.3125 C 3.957031 -16.726562 5.109375 -16.9375 6.390625 -16.9375 C 8.097656 -16.9375 9.453125 -16.53125 10.453125 -15.71875 C 11.453125 -14.914062 11.953125 -13.8125 11.953125 -12.40625 C 11.953125 -11.539062 11.757812 -10.707031 11.375 -9.90625 C 10.988281 -9.113281 10.257812 -8.195312 9.1875 -7.15625 L 3.484375 -1.53125 Z M 12.71875 -1.53125 "/></g></g></g><g fill="#33cc33" fill-opacity="1"><g transform="translate(367.128003, 135.980586)"><g><path d="M 10.875 -8.8125 C 11.925781 -8.457031 12.734375 -7.925781 13.296875 -7.21875 C 13.867188 -6.519531 14.15625 -5.675781 14.15625 -4.6875 C 14.15625 -3.707031 13.890625 -2.851562 13.359375 -2.125 C 12.835938 -1.394531 12.082031 -0.832031 11.09375 -0.4375 C 10.113281 -0.0507812 8.957031 0.140625 7.625 0.140625 C 5.613281 0.140625 4.03125 -0.289062 2.875 -1.15625 C 1.726562 -2.019531 1.15625 -3.195312 1.15625 -4.6875 C 1.15625 -5.6875 1.429688 -6.535156 1.984375 -7.234375 C 2.535156 -7.929688 3.335938 -8.457031 4.390625 -8.8125 C 3.523438 -9.144531 2.867188 -9.625 2.421875 -10.25 C 1.972656 -10.882812 1.75 -11.632812 1.75 -12.5 C 1.75 -13.863281 2.28125 -14.941406 3.34375 -15.734375 C 4.40625 -16.535156 5.832031 -16.9375 7.625 -16.9375 C 8.8125 -16.9375 9.847656 -16.753906 10.734375 -16.390625 C 11.628906 -16.035156 12.320312 -15.519531 12.8125 -14.84375 C 13.3125 -14.175781 13.5625 -13.394531 13.5625 -12.5 C 13.5625 -11.632812 13.328125 -10.882812 12.859375 -10.25 C 12.398438 -9.625 11.738281 -9.144531 10.875 -8.8125 Z M 3.484375 -12.453125 C 3.484375 -11.523438 3.847656 -10.789062 4.578125 -10.25 C 5.316406 -9.707031 6.332031 -9.4375 7.625 -9.4375 C 8.925781 -9.4375 9.945312 -9.707031 10.6875 -10.25 C 11.4375 -10.789062 11.8125 -11.519531 11.8125 -12.4375 C 11.8125 -13.375 11.429688 -14.113281 10.671875 -14.65625 C 9.910156 -15.207031 8.894531 -15.484375 7.625 -15.484375 C 6.351562 -15.484375 5.34375 -15.207031 4.59375 -14.65625 C 3.851562 -14.113281 3.484375 -13.378906 3.484375 -12.453125 Z M 7.625 -1.3125 C 9.113281 -1.3125 10.28125 -1.613281 11.125 -2.21875 C 11.96875 -2.832031 12.390625 -3.660156 12.390625 -4.703125 C 12.390625 -5.742188 11.96875 -6.5625 11.125 -7.15625 C 10.28125 -7.757812 9.113281 -8.0625 7.625 -8.0625 C 6.15625 -8.0625 5 -7.757812 4.15625 -7.15625 C 3.320312 -6.5625 2.90625 -5.742188 2.90625 -4.703125 C 2.90625 -3.648438 3.320312 -2.820312 4.15625 -2.21875 C 4.988281 -1.613281 6.144531 -1.3125 7.625 -1.3125 Z M 7.625 -1.3125 "/></g></g></g><g fill="#33cc33" fill-opacity="1"><g transform="translate(382.440037, 135.980586)"><g><path d="M 8.203125 -10.0625 C 9.304688 -10.0625 10.285156 -9.851562 11.140625 -9.4375 C 12.003906 -9.019531 12.675781 -8.429688 13.15625 -7.671875 C 13.632812 -6.910156 13.875 -6.023438 13.875 -5.015625 C 13.875 -3.992188 13.625 -3.085938 13.125 -2.296875 C 12.632812 -1.515625 11.953125 -0.910156 11.078125 -0.484375 C 10.203125 -0.0664062 9.222656 0.140625 8.140625 0.140625 C 5.910156 0.140625 4.203125 -0.585938 3.015625 -2.046875 C 1.835938 -3.515625 1.25 -5.582031 1.25 -8.25 C 1.25 -10.125 1.566406 -11.707031 2.203125 -13 C 2.847656 -14.300781 3.742188 -15.28125 4.890625 -15.9375 C 6.046875 -16.601562 7.390625 -16.9375 8.921875 -16.9375 C 10.585938 -16.9375 11.914062 -16.632812 12.90625 -16.03125 L 12.21875 -14.640625 C 11.414062 -15.171875 10.328125 -15.4375 8.953125 -15.4375 C 7.097656 -15.4375 5.640625 -14.847656 4.578125 -13.671875 C 3.523438 -12.492188 3 -10.785156 3 -8.546875 C 3 -8.140625 3.023438 -7.679688 3.078125 -7.171875 C 3.492188 -8.085938 4.15625 -8.796875 5.0625 -9.296875 C 5.976562 -9.804688 7.023438 -10.0625 8.203125 -10.0625 Z M 8.0625 -1.3125 C 9.28125 -1.3125 10.269531 -1.644531 11.03125 -2.3125 C 11.789062 -2.976562 12.171875 -3.863281 12.171875 -4.96875 C 12.171875 -6.070312 11.789062 -6.953125 11.03125 -7.609375 C 10.269531 -8.265625 9.238281 -8.59375 7.9375 -8.59375 C 7.09375 -8.59375 6.347656 -8.429688 5.703125 -8.109375 C 5.054688 -7.785156 4.546875 -7.34375 4.171875 -6.78125 C 3.804688 -6.226562 3.625 -5.609375 3.625 -4.921875 C 3.625 -4.273438 3.796875 -3.679688 4.140625 -3.140625 C 4.484375 -2.597656 4.988281 -2.15625 5.65625 -1.8125 C 6.332031 -1.476562 7.132812 -1.3125 8.0625 -1.3125 Z M 8.0625 -1.3125 "/></g></g></g><g fill="#33cc33" fill-opacity="1"><g transform="translate(397.296069, 135.980586)"><g><path d="M 2.546875 0.125 C 2.191406 0.125 1.890625 0 1.640625 -0.25 C 1.390625 -0.507812 1.265625 -0.828125 1.265625 -1.203125 C 1.265625 -1.566406 1.390625 -1.875 1.640625 -2.125 C 1.890625 -2.375 2.191406 -2.5 2.546875 -2.5 C 2.898438 -2.5 3.203125 -2.375 3.453125 -2.125 C 3.710938 -1.875 3.84375 -1.566406 3.84375 -1.203125 C 3.84375 -0.828125 3.710938 -0.507812 3.453125 -0.25 C 3.203125 0 2.898438 0.125 2.546875 0.125 Z M 2.546875 0.125 "/></g></g></g><g fill="#33cc33" fill-opacity="1"><g transform="translate(402.072078, 135.980586)"><g><path d="M 15.53125 -4.421875 L 12.171875 -4.421875 L 12.171875 0 L 10.4375 0 L 10.4375 -4.421875 L 0.953125 -4.421875 L 0.953125 -5.65625 L 9.859375 -16.796875 L 11.78125 -16.796875 L 3.1875 -5.953125 L 10.484375 -5.953125 L 10.484375 -9.84375 L 12.171875 -9.84375 L 12.171875 -5.953125 L 15.53125 -5.953125 Z M 15.53125 -4.421875 "/></g></g></g><g fill="#33cc33" fill-opacity="1"><g transform="translate(417.840102, 135.980586)"><g><path d="M 5.65625 -9.90625 C 8.09375 -9.90625 9.863281 -9.46875 10.96875 -8.59375 C 12.082031 -7.726562 12.640625 -6.507812 12.640625 -4.9375 C 12.640625 -3.96875 12.410156 -3.097656 11.953125 -2.328125 C 11.503906 -1.554688 10.820312 -0.953125 9.90625 -0.515625 C 9 -0.078125 7.878906 0.140625 6.546875 0.140625 C 5.347656 0.140625 4.207031 -0.0507812 3.125 -0.4375 C 2.050781 -0.832031 1.1875 -1.359375 0.53125 -2.015625 L 1.375 -3.390625 C 1.925781 -2.804688 2.65625 -2.332031 3.5625 -1.96875 C 4.476562 -1.613281 5.46875 -1.4375 6.53125 -1.4375 C 7.914062 -1.4375 8.988281 -1.75 9.75 -2.375 C 10.507812 -3 10.890625 -3.832031 10.890625 -4.875 C 10.890625 -6.019531 10.460938 -6.890625 9.609375 -7.484375 C 8.753906 -8.078125 7.3125 -8.375 5.28125 -8.375 L 1.703125 -8.375 L 2.5625 -16.796875 L 11.765625 -16.796875 L 11.765625 -15.265625 L 4.078125 -15.265625 L 3.5 -9.90625 Z M 5.65625 -9.90625 "/></g></g></g><g fill="#ff3131" fill-opacity="1"><g transform="translate(290.643388, 473.379237)"><g><path d="M 8.203125 -10.0625 C 9.304688 -10.0625 10.285156 -9.851562 11.140625 -9.4375 C 12.003906 -9.019531 12.675781 -8.429688 13.15625 -7.671875 C 13.632812 -6.910156 13.875 -6.023438 13.875 -5.015625 C 13.875 -3.992188 13.625 -3.085938 13.125 -2.296875 C 12.632812 -1.515625 11.953125 -0.910156 11.078125 -0.484375 C 10.203125 -0.0664062 9.222656 0.140625 8.140625 0.140625 C 5.910156 0.140625 4.203125 -0.585938 3.015625 -2.046875 C 1.835938 -3.515625 1.25 -5.582031 1.25 -8.25 C 1.25 -10.125 1.566406 -11.707031 2.203125 -13 C 2.847656 -14.300781 3.742188 -15.28125 4.890625 -15.9375 C 6.046875 -16.601562 7.390625 -16.9375 8.921875 -16.9375 C 10.585938 -16.9375 11.914062 -16.632812 12.90625 -16.03125 L 12.21875 -14.640625 C 11.414062 -15.171875 10.328125 -15.4375 8.953125 -15.4375 C 7.097656 -15.4375 5.640625 -14.847656 4.578125 -13.671875 C 3.523438 -12.492188 3 -10.785156 3 -8.546875 C 3 -8.140625 3.023438 -7.679688 3.078125 -7.171875 C 3.492188 -8.085938 4.15625 -8.796875 5.0625 -9.296875 C 5.976562 -9.804688 7.023438 -10.0625 8.203125 -10.0625 Z M 8.0625 -1.3125 C 9.28125 -1.3125 10.269531 -1.644531 11.03125 -2.3125 C 11.789062 -2.976562 12.171875 -3.863281 12.171875 -4.96875 C 12.171875 -6.070312 11.789062 -6.953125 11.03125 -7.609375 C 10.269531 -8.265625 9.238281 -8.59375 7.9375 -8.59375 C 7.09375 -8.59375 6.347656 -8.429688 5.703125 -8.109375 C 5.054688 -7.785156 4.546875 -7.34375 4.171875 -6.78125 C 3.804688 -6.226562 3.625 -5.609375 3.625 -4.921875 C 3.625 -4.273438 3.796875 -3.679688 4.140625 -3.140625 C 4.484375 -2.597656 4.988281 -2.15625 5.65625 -1.8125 C 6.332031 -1.476562 7.132812 -1.3125 8.0625 -1.3125 Z M 8.0625 -1.3125 "/></g></g></g><g fill="#ff3131" fill-opacity="1"><g transform="translate(305.259416, 473.379237)"><g><path d="M 5.65625 -9.90625 C 8.09375 -9.90625 9.863281 -9.46875 10.96875 -8.59375 C 12.082031 -7.726562 12.640625 -6.507812 12.640625 -4.9375 C 12.640625 -3.96875 12.410156 -3.097656 11.953125 -2.328125 C 11.503906 -1.554688 10.820312 -0.953125 9.90625 -0.515625 C 9 -0.078125 7.878906 0.140625 6.546875 0.140625 C 5.347656 0.140625 4.207031 -0.0507812 3.125 -0.4375 C 2.050781 -0.832031 1.1875 -1.359375 0.53125 -2.015625 L 1.375 -3.390625 C 1.925781 -2.804688 2.65625 -2.332031 3.5625 -1.96875 C 4.476562 -1.613281 5.46875 -1.4375 6.53125 -1.4375 C 7.914062 -1.4375 8.988281 -1.75 9.75 -2.375 C 10.507812 -3 10.890625 -3.832031 10.890625 -4.875 C 10.890625 -6.019531 10.460938 -6.890625 9.609375 -7.484375 C 8.753906 -8.078125 7.3125 -8.375 5.28125 -8.375 L 1.703125 -8.375 L 2.5625 -16.796875 L 11.765625 -16.796875 L 11.765625 -15.265625 L 4.078125 -15.265625 L 3.5 -9.90625 Z M 5.65625 -9.90625 "/></g></g></g><g fill="#ff3131" fill-opacity="1"><g transform="translate(318.843437, 473.379237)"><g><path d="M 2.546875 0.125 C 2.191406 0.125 1.890625 0 1.640625 -0.25 C 1.390625 -0.507812 1.265625 -0.828125 1.265625 -1.203125 C 1.265625 -1.566406 1.390625 -1.875 1.640625 -2.125 C 1.890625 -2.375 2.191406 -2.5 2.546875 -2.5 C 2.898438 -2.5 3.203125 -2.375 3.453125 -2.125 C 3.710938 -1.875 3.84375 -1.566406 3.84375 -1.203125 C 3.84375 -0.828125 3.710938 -0.507812 3.453125 -0.25 C 3.203125 0 2.898438 0.125 2.546875 0.125 Z M 2.546875 0.125 "/></g></g></g><g fill="#ff3131" fill-opacity="1"><g transform="translate(324.171451, 473.379237)"><g><path d="M 10.875 -8.8125 C 11.925781 -8.457031 12.734375 -7.925781 13.296875 -7.21875 C 13.867188 -6.519531 14.15625 -5.675781 14.15625 -4.6875 C 14.15625 -3.707031 13.890625 -2.851562 13.359375 -2.125 C 12.835938 -1.394531 12.082031 -0.832031 11.09375 -0.4375 C 10.113281 -0.0507812 8.957031 0.140625 7.625 0.140625 C 5.613281 0.140625 4.03125 -0.289062 2.875 -1.15625 C 1.726562 -2.019531 1.15625 -3.195312 1.15625 -4.6875 C 1.15625 -5.6875 1.429688 -6.535156 1.984375 -7.234375 C 2.535156 -7.929688 3.335938 -8.457031 4.390625 -8.8125 C 3.523438 -9.144531 2.867188 -9.625 2.421875 -10.25 C 1.972656 -10.882812 1.75 -11.632812 1.75 -12.5 C 1.75 -13.863281 2.28125 -14.941406 3.34375 -15.734375 C 4.40625 -16.535156 5.832031 -16.9375 7.625 -16.9375 C 8.8125 -16.9375 9.847656 -16.753906 10.734375 -16.390625 C 11.628906 -16.035156 12.320312 -15.519531 12.8125 -14.84375 C 13.3125 -14.175781 13.5625 -13.394531 13.5625 -12.5 C 13.5625 -11.632812 13.328125 -10.882812 12.859375 -10.25 C 12.398438 -9.625 11.738281 -9.144531 10.875 -8.8125 Z M 3.484375 -12.453125 C 3.484375 -11.523438 3.847656 -10.789062 4.578125 -10.25 C 5.316406 -9.707031 6.332031 -9.4375 7.625 -9.4375 C 8.925781 -9.4375 9.945312 -9.707031 10.6875 -10.25 C 11.4375 -10.789062 11.8125 -11.519531 11.8125 -12.4375 C 11.8125 -13.375 11.429688 -14.113281 10.671875 -14.65625 C 9.910156 -15.207031 8.894531 -15.484375 7.625 -15.484375 C 6.351562 -15.484375 5.34375 -15.207031 4.59375 -14.65625 C 3.851562 -14.113281 3.484375 -13.378906 3.484375 -12.453125 Z M 7.625 -1.3125 C 9.113281 -1.3125 10.28125 -1.613281 11.125 -2.21875 C 11.96875 -2.832031 12.390625 -3.660156 12.390625 -4.703125 C 12.390625 -5.742188 11.96875 -6.5625 11.125 -7.15625 C 10.28125 -7.757812 9.113281 -8.0625 7.625 -8.0625 C 6.15625 -8.0625 5 -7.757812 4.15625 -7.15625 C 3.320312 -6.5625 2.90625 -5.742188 2.90625 -4.703125 C 2.90625 -3.648438 3.320312 -2.820312 4.15625 -2.21875 C 4.988281 -1.613281 6.144531 -1.3125 7.625 -1.3125 Z M 7.625 -1.3125 "/></g></g></g><g fill="#ff3131" fill-opacity="1"><g transform="translate(339.483485, 473.379237)"><g><path d="M 10.875 -8.8125 C 11.925781 -8.457031 12.734375 -7.925781 13.296875 -7.21875 C 13.867188 -6.519531 14.15625 -5.675781 14.15625 -4.6875 C 14.15625 -3.707031 13.890625 -2.851562 13.359375 -2.125 C 12.835938 -1.394531 12.082031 -0.832031 11.09375 -0.4375 C 10.113281 -0.0507812 8.957031 0.140625 7.625 0.140625 C 5.613281 0.140625 4.03125 -0.289062 2.875 -1.15625 C 1.726562 -2.019531 1.15625 -3.195312 1.15625 -4.6875 C 1.15625 -5.6875 1.429688 -6.535156 1.984375 -7.234375 C 2.535156 -7.929688 3.335938 -8.457031 4.390625 -8.8125 C 3.523438 -9.144531 2.867188 -9.625 2.421875 -10.25 C 1.972656 -10.882812 1.75 -11.632812 1.75 -12.5 C 1.75 -13.863281 2.28125 -14.941406 3.34375 -15.734375 C 4.40625 -16.535156 5.832031 -16.9375 7.625 -16.9375 C 8.8125 -16.9375 9.847656 -16.753906 10.734375 -16.390625 C 11.628906 -16.035156 12.320312 -15.519531 12.8125 -14.84375 C 13.3125 -14.175781 13.5625 -13.394531 13.5625 -12.5 C 13.5625 -11.632812 13.328125 -10.882812 12.859375 -10.25 C 12.398438 -9.625 11.738281 -9.144531 10.875 -8.8125 Z M 3.484375 -12.453125 C 3.484375 -11.523438 3.847656 -10.789062 4.578125 -10.25 C 5.316406 -9.707031 6.332031 -9.4375 7.625 -9.4375 C 8.925781 -9.4375 9.945312 -9.707031 10.6875 -10.25 C 11.4375 -10.789062 11.8125 -11.519531 11.8125 -12.4375 C 11.8125 -13.375 11.429688 -14.113281 10.671875 -14.65625 C 9.910156 -15.207031 8.894531 -15.484375 7.625 -15.484375 C 6.351562 -15.484375 5.34375 -15.207031 4.59375 -14.65625 C 3.851562 -14.113281 3.484375 -13.378906 3.484375 -12.453125 Z M 7.625 -1.3125 C 9.113281 -1.3125 10.28125 -1.613281 11.125 -2.21875 C 11.96875 -2.832031 12.390625 -3.660156 12.390625 -4.703125 C 12.390625 -5.742188 11.96875 -6.5625 11.125 -7.15625 C 10.28125 -7.757812 9.113281 -8.0625 7.625 -8.0625 C 6.15625 -8.0625 5 -7.757812 4.15625 -7.15625 C 3.320312 -6.5625 2.90625 -5.742188 2.90625 -4.703125 C 2.90625 -3.648438 3.320312 -2.820312 4.15625 -2.21875 C 4.988281 -1.613281 6.144531 -1.3125 7.625 -1.3125 Z M 7.625 -1.3125 "/></g></g></g><g fill="#ff3131" fill-opacity="1"><g transform="translate(803.232925, 369.802413)"><g><path d="M 13.109375 -16.796875 L 13.109375 -15.578125 L 6.078125 0 L 4.203125 0 L 11.109375 -15.265625 L 2.46875 -15.265625 L 2.46875 -12.125 L 0.765625 -12.125 L 0.765625 -16.796875 Z M 13.109375 -16.796875 "/></g></g></g><g fill="#ff3131" fill-opacity="1"><g transform="translate(817.608958, 369.802413)"><g><path d="M 5.90625 -16.796875 L 5.90625 0 L 4.171875 0 L 4.171875 -15.265625 L 0.21875 -15.265625 L 0.21875 -16.796875 Z M 5.90625 -16.796875 "/></g></g></g><g fill="#ff3131" fill-opacity="1"><g transform="translate(826.272971, 369.802413)"><g><path d="M 2.546875 0.125 C 2.191406 0.125 1.890625 0 1.640625 -0.25 C 1.390625 -0.507812 1.265625 -0.828125 1.265625 -1.203125 C 1.265625 -1.566406 1.390625 -1.875 1.640625 -2.125 C 1.890625 -2.375 2.191406 -2.5 2.546875 -2.5 C 2.898438 -2.5 3.203125 -2.375 3.453125 -2.125 C 3.710938 -1.875 3.84375 -1.566406 3.84375 -1.203125 C 3.84375 -0.828125 3.710938 -0.507812 3.453125 -0.25 C 3.203125 0 2.898438 0.125 2.546875 0.125 Z M 2.546875 0.125 "/></g></g></g><g fill="#ff3131" fill-opacity="1"><g transform="translate(831.360979, 369.802413)"><g><path d="M 6.484375 -16.9375 C 8.703125 -16.9375 10.40625 -16.203125 11.59375 -14.734375 C 12.78125 -13.273438 13.375 -11.210938 13.375 -8.546875 C 13.375 -6.671875 13.050781 -5.082031 12.40625 -3.78125 C 11.769531 -2.488281 10.875 -1.507812 9.71875 -0.84375 C 8.5625 -0.1875 7.21875 0.140625 5.6875 0.140625 C 4.019531 0.140625 2.691406 -0.160156 1.703125 -0.765625 L 2.40625 -2.15625 C 3.195312 -1.632812 4.28125 -1.375 5.65625 -1.375 C 7.519531 -1.375 8.976562 -1.957031 10.03125 -3.125 C 11.082031 -4.300781 11.609375 -6.007812 11.609375 -8.25 C 11.609375 -8.664062 11.585938 -9.125 11.546875 -9.625 C 11.128906 -8.707031 10.460938 -8 9.546875 -7.5 C 8.640625 -7 7.59375 -6.75 6.40625 -6.75 C 5.300781 -6.75 4.320312 -6.953125 3.46875 -7.359375 C 2.613281 -7.773438 1.945312 -8.363281 1.46875 -9.125 C 0.988281 -9.882812 0.75 -10.769531 0.75 -11.78125 C 0.75 -12.800781 0.992188 -13.703125 1.484375 -14.484375 C 1.984375 -15.273438 2.664062 -15.878906 3.53125 -16.296875 C 4.40625 -16.722656 5.390625 -16.9375 6.484375 -16.9375 Z M 6.671875 -8.203125 C 7.515625 -8.203125 8.257812 -8.363281 8.90625 -8.6875 C 9.5625 -9.007812 10.070312 -9.445312 10.4375 -10 C 10.800781 -10.5625 10.984375 -11.1875 10.984375 -11.875 C 10.984375 -12.519531 10.8125 -13.113281 10.46875 -13.65625 C 10.125 -14.195312 9.613281 -14.632812 8.9375 -14.96875 C 8.269531 -15.3125 7.472656 -15.484375 6.546875 -15.484375 C 5.335938 -15.484375 4.351562 -15.148438 3.59375 -14.484375 C 2.832031 -13.816406 2.453125 -12.929688 2.453125 -11.828125 C 2.453125 -10.722656 2.832031 -9.84375 3.59375 -9.1875 C 4.351562 -8.53125 5.378906 -8.203125 6.671875 -8.203125 Z M 6.671875 -8.203125 "/></g></g></g><g fill="#ff3131" fill-opacity="1"><g transform="translate(845.977006, 369.802413)"><g><path d="M 6.484375 -16.9375 C 8.703125 -16.9375 10.40625 -16.203125 11.59375 -14.734375 C 12.78125 -13.273438 13.375 -11.210938 13.375 -8.546875 C 13.375 -6.671875 13.050781 -5.082031 12.40625 -3.78125 C 11.769531 -2.488281 10.875 -1.507812 9.71875 -0.84375 C 8.5625 -0.1875 7.21875 0.140625 5.6875 0.140625 C 4.019531 0.140625 2.691406 -0.160156 1.703125 -0.765625 L 2.40625 -2.15625 C 3.195312 -1.632812 4.28125 -1.375 5.65625 -1.375 C 7.519531 -1.375 8.976562 -1.957031 10.03125 -3.125 C 11.082031 -4.300781 11.609375 -6.007812 11.609375 -8.25 C 11.609375 -8.664062 11.585938 -9.125 11.546875 -9.625 C 11.128906 -8.707031 10.460938 -8 9.546875 -7.5 C 8.640625 -7 7.59375 -6.75 6.40625 -6.75 C 5.300781 -6.75 4.320312 -6.953125 3.46875 -7.359375 C 2.613281 -7.773438 1.945312 -8.363281 1.46875 -9.125 C 0.988281 -9.882812 0.75 -10.769531 0.75 -11.78125 C 0.75 -12.800781 0.992188 -13.703125 1.484375 -14.484375 C 1.984375 -15.273438 2.664062 -15.878906 3.53125 -16.296875 C 4.40625 -16.722656 5.390625 -16.9375 6.484375 -16.9375 Z M 6.671875 -8.203125 C 7.515625 -8.203125 8.257812 -8.363281 8.90625 -8.6875 C 9.5625 -9.007812 10.070312 -9.445312 10.4375 -10 C 10.800781 -10.5625 10.984375 -11.1875 10.984375 -11.875 C 10.984375 -12.519531 10.8125 -13.113281 10.46875 -13.65625 C 10.125 -14.195312 9.613281 -14.632812 8.9375 -14.96875 C 8.269531 -15.3125 7.472656 -15.484375 6.546875 -15.484375 C 5.335938 -15.484375 4.351562 -15.148438 3.59375 -14.484375 C 2.832031 -13.816406 2.453125 -12.929688 2.453125 -11.828125 C 2.453125 -10.722656 2.832031 -9.84375 3.59375 -9.1875 C 4.351562 -8.53125 5.378906 -8.203125 6.671875 -8.203125 Z M 6.671875 -8.203125 "/></g></g></g><g fill="#33cc33" fill-opacity="1"><g transform="translate(1116.726862, 234.224202)"><g><path d="M 10.875 -8.8125 C 11.925781 -8.457031 12.734375 -7.925781 13.296875 -7.21875 C 13.867188 -6.519531 14.15625 -5.675781 14.15625 -4.6875 C 14.15625 -3.707031 13.890625 -2.851562 13.359375 -2.125 C 12.835938 -1.394531 12.082031 -0.832031 11.09375 -0.4375 C 10.113281 -0.0507812 8.957031 0.140625 7.625 0.140625 C 5.613281 0.140625 4.03125 -0.289062 2.875 -1.15625 C 1.726562 -2.019531 1.15625 -3.195312 1.15625 -4.6875 C 1.15625 -5.6875 1.429688 -6.535156 1.984375 -7.234375 C 2.535156 -7.929688 3.335938 -8.457031 4.390625 -8.8125 C 3.523438 -9.144531 2.867188 -9.625 2.421875 -10.25 C 1.972656 -10.882812 1.75 -11.632812 1.75 -12.5 C 1.75 -13.863281 2.28125 -14.941406 3.34375 -15.734375 C 4.40625 -16.535156 5.832031 -16.9375 7.625 -16.9375 C 8.8125 -16.9375 9.847656 -16.753906 10.734375 -16.390625 C 11.628906 -16.035156 12.320312 -15.519531 12.8125 -14.84375 C 13.3125 -14.175781 13.5625 -13.394531 13.5625 -12.5 C 13.5625 -11.632812 13.328125 -10.882812 12.859375 -10.25 C 12.398438 -9.625 11.738281 -9.144531 10.875 -8.8125 Z M 3.484375 -12.453125 C 3.484375 -11.523438 3.847656 -10.789062 4.578125 -10.25 C 5.316406 -9.707031 6.332031 -9.4375 7.625 -9.4375 C 8.925781 -9.4375 9.945312 -9.707031 10.6875 -10.25 C 11.4375 -10.789062 11.8125 -11.519531 11.8125 -12.4375 C 11.8125 -13.375 11.429688 -14.113281 10.671875 -14.65625 C 9.910156 -15.207031 8.894531 -15.484375 7.625 -15.484375 C 6.351562 -15.484375 5.34375 -15.207031 4.59375 -14.65625 C 3.851562 -14.113281 3.484375 -13.378906 3.484375 -12.453125 Z M 7.625 -1.3125 C 9.113281 -1.3125 10.28125 -1.613281 11.125 -2.21875 C 11.96875 -2.832031 12.390625 -3.660156 12.390625 -4.703125 C 12.390625 -5.742188 11.96875 -6.5625 11.125 -7.15625 C 10.28125 -7.757812 9.113281 -8.0625 7.625 -8.0625 C 6.15625 -8.0625 5 -7.757812 4.15625 -7.15625 C 3.320312 -6.5625 2.90625 -5.742188 2.90625 -4.703125 C 2.90625 -3.648438 3.320312 -2.820312 4.15625 -2.21875 C 4.988281 -1.613281 6.144531 -1.3125 7.625 -1.3125 Z M 7.625 -1.3125 "/></g></g></g><g fill="#33cc33" fill-opacity="1"><g transform="translate(1132.038896, 234.224202)"><g><path d="M 8.203125 -10.0625 C 9.304688 -10.0625 10.285156 -9.851562 11.140625 -9.4375 C 12.003906 -9.019531 12.675781 -8.429688 13.15625 -7.671875 C 13.632812 -6.910156 13.875 -6.023438 13.875 -5.015625 C 13.875 -3.992188 13.625 -3.085938 13.125 -2.296875 C 12.632812 -1.515625 11.953125 -0.910156 11.078125 -0.484375 C 10.203125 -0.0664062 9.222656 0.140625 8.140625 0.140625 C 5.910156 0.140625 4.203125 -0.585938 3.015625 -2.046875 C 1.835938 -3.515625 1.25 -5.582031 1.25 -8.25 C 1.25 -10.125 1.566406 -11.707031 2.203125 -13 C 2.847656 -14.300781 3.742188 -15.28125 4.890625 -15.9375 C 6.046875 -16.601562 7.390625 -16.9375 8.921875 -16.9375 C 10.585938 -16.9375 11.914062 -16.632812 12.90625 -16.03125 L 12.21875 -14.640625 C 11.414062 -15.171875 10.328125 -15.4375 8.953125 -15.4375 C 7.097656 -15.4375 5.640625 -14.847656 4.578125 -13.671875 C 3.523438 -12.492188 3 -10.785156 3 -8.546875 C 3 -8.140625 3.023438 -7.679688 3.078125 -7.171875 C 3.492188 -8.085938 4.15625 -8.796875 5.0625 -9.296875 C 5.976562 -9.804688 7.023438 -10.0625 8.203125 -10.0625 Z M 8.0625 -1.3125 C 9.28125 -1.3125 10.269531 -1.644531 11.03125 -2.3125 C 11.789062 -2.976562 12.171875 -3.863281 12.171875 -4.96875 C 12.171875 -6.070312 11.789062 -6.953125 11.03125 -7.609375 C 10.269531 -8.265625 9.238281 -8.59375 7.9375 -8.59375 C 7.09375 -8.59375 6.347656 -8.429688 5.703125 -8.109375 C 5.054688 -7.785156 4.546875 -7.34375 4.171875 -6.78125 C 3.804688 -6.226562 3.625 -5.609375 3.625 -4.921875 C 3.625 -4.273438 3.796875 -3.679688 4.140625 -3.140625 C 4.484375 -2.597656 4.988281 -2.15625 5.65625 -1.8125 C 6.332031 -1.476562 7.132812 -1.3125 8.0625 -1.3125 Z M 8.0625 -1.3125 "/></g></g></g><g fill="#33cc33" fill-opacity="1"><g transform="translate(1146.894928, 234.224202)"><g><path d="M 2.546875 0.125 C 2.191406 0.125 1.890625 0 1.640625 -0.25 C 1.390625 -0.507812 1.265625 -0.828125 1.265625 -1.203125 C 1.265625 -1.566406 1.390625 -1.875 1.640625 -2.125 C 1.890625 -2.375 2.191406 -2.5 2.546875 -2.5 C 2.898438 -2.5 3.203125 -2.375 3.453125 -2.125 C 3.710938 -1.875 3.84375 -1.566406 3.84375 -1.203125 C 3.84375 -0.828125 3.710938 -0.507812 3.453125 -0.25 C 3.203125 0 2.898438 0.125 2.546875 0.125 Z M 2.546875 0.125 "/></g></g></g><g fill="#33cc33" fill-opacity="1"><g transform="translate(1151.694935, 234.224202)"><g><path d="M 5.90625 -16.796875 L 5.90625 0 L 4.171875 0 L 4.171875 -15.265625 L 0.21875 -15.265625 L 0.21875 -16.796875 Z M 5.90625 -16.796875 "/></g></g></g><g fill="#33cc33" fill-opacity="1"><g transform="translate(1160.358947, 234.224202)"><g><path d="M 13.109375 -16.796875 L 13.109375 -15.578125 L 6.078125 0 L 4.203125 0 L 11.109375 -15.265625 L 2.46875 -15.265625 L 2.46875 -12.125 L 0.765625 -12.125 L 0.765625 -16.796875 Z M 13.109375 -16.796875 "/></g></g></g></svg>