<?xml version="1.0" encoding="UTF-8" standalone="no"?>
<!-- Filename: 8b94f08989a41f11fb30fa5cc117014bebea63830a97e98ce19c09b4e536a682.svg -->
<!-- Created with https://svgstud.io -->
<svg
  version="1.1"
  xmlns="http://www.w3.org/2000/svg"
  xmlns:xlink="http://www.w3.org/1999/xlink"
  xmlns:svg="http://www.w3.org/2000/svg"
  xmlns:rdf="http://www.w3.org/1999/02/22-rdf-syntax-ns#"
  xmlns:cc="http://creativecommons.org/ns#"
  xmlns:dc="http://purl.org/dc/elements/1.1/"
  viewBox="0 0 768 768"
  width="768"
  height="768"
  role="img"
  aria-labelledby="titleID descID"
>
  <title id="titleID">sun tzu</title>
  <desc id="descID">AI-generated SVG illustration: sun tzu, created on https://svgstud.io</desc>

  <rect width="100%" height="100%" fill="white" />

  <metadata id="copyright">
    Created by https://svgstud.io and licensed under CC-BY-SA 4.0 license. Please attribute https://svgstud.io
  </metadata>
  <metadata id="prompt">
    sun tzu
  </metadata>
  <metadata id="version">
    7
  </metadata>
  <metadata>
    <rdf:RDF
      xmlns:rdf="http://www.w3.org/1999/02/22-rdf-syntax-ns#"
      xmlns:cc="http://creativecommons.org/ns#"
      xmlns:dc="http://purl.org/dc/elements/1.1/"
    >
      <cc:Work rdf:about="">
        <cc:license rdf:resource="http://creativecommons.org/licenses/by-sa/4.0/" />
        <dc:creator>
          <cc:Agent>
            <dc:title>https://svgstud.io</dc:title>
          </cc:Agent>
        </dc:creator>
      </cc:Work>
      <cc:License rdf:about="http://creativecommons.org/licenses/by-sa/4.0/">
        <cc:permits rdf:resource="http://creativecommons.org/ns#Reproduction" />
        <cc:permits rdf:resource="http://creativecommons.org/ns#Distribution" />
        <cc:requires rdf:resource="http://creativecommons.org/ns#Notice" />
        <cc:requires rdf:resource="http://creativecommons.org/ns#Attribution" />
        <cc:permits rdf:resource="http://creativecommons.org/ns#DerivativeWorks" />
        <cc:requires rdf:resource="http://creativecommons.org/ns#ShareAlike" />
      </cc:License>
    </rdf:RDF>
  </metadata>
  <metadata id="uid">8b94f08989a41f11fb30fa5cc117014bebea63830a97e98ce19c09b4e536a682</metadata>

  <path stroke="none" fill="black" fill-rule="evenodd" d="M370.0,741.4C360.4,741.6 349.4,741.5 345.5,741.3C341.6,741.1 338.1,740.5 337.6,740.0C337.0,739.4 338.0,737.0 340.2,733.8C342.2,730.9 344.6,726.9 345.5,725.0C346.5,723.1 351.7,715.1 357.1,707.4C362.5,699.6 371.7,687.2 377.5,679.7C383.3,672.2 390.8,663.6 394.3,660.6C397.7,657.5 401.1,655.0 401.8,655.0C402.4,655.0 403.0,655.7 403.0,656.5C403.0,657.4 400.3,663.1 397.0,669.2C393.6,675.3 391.1,680.4 391.3,680.6C391.5,680.8 396.6,676.9 402.6,671.9C408.6,666.9 416.2,661.3 419.6,659.4C422.9,657.5 426.2,656.0 426.8,656.0C427.5,656.0 428.0,656.6 428.0,657.4C428.0,658.2 425.6,662.4 422.6,666.8C419.6,671.1 414.1,680.2 410.3,687.1C406.5,693.9 402.9,700.8 402.2,702.3C401.5,703.8 401.0,706.0 401.0,707.0C401.0,708.1 401.3,709.0 401.6,709.0C402.0,709.0 405.5,706.0 409.4,702.2C413.3,698.5 420.5,692.7 425.4,689.2C430.3,685.7 436.1,682.0 438.3,680.8C442.3,678.8 442.3,678.8 440.0,682.6C438.8,684.8 434.8,691.8 431.3,698.2C427.7,704.7 425.0,710.4 425.2,711.0C425.4,711.6 428.7,709.7 432.5,706.9C436.4,704.2 441.2,701.0 443.3,699.9C445.4,698.8 447.6,698.0 448.1,698.2C448.6,698.4 445.4,705.7 441.0,714.6C436.7,723.4 432.4,731.2 431.6,731.9C430.8,732.6 427.3,733.8 423.8,734.7C420.3,735.5 415.0,736.6 412.0,737.0C409.0,737.5 402.2,738.6 397.0,739.5C391.8,740.4 379.6,741.2 370.0,741.4zM312.1,736.9C310.1,736.8 306.1,736.4 303.3,736.0C300.4,735.6 296.9,734.9 295.5,734.6C294.1,734.2 293.0,733.6 293.0,733.2C293.0,732.8 295.6,729.4 298.7,725.5C301.8,721.6 306.9,714.7 310.0,710.0C313.1,705.3 316.5,700.1 317.7,698.5C318.8,696.8 324.0,689.2 329.1,681.5C334.2,673.8 339.8,665.0 341.5,662.0C343.3,659.0 348.0,651.3 352.0,645.0C356.0,638.7 366.1,621.8 374.5,607.5C382.9,593.2 391.6,578.4 394.0,574.5C396.3,570.6 404.2,558.5 411.6,547.5C418.9,536.5 429.0,522.3 434.1,516.0C439.1,509.7 449.4,497.5 456.9,489.0C464.5,480.5 476.6,467.3 483.9,459.7C491.2,452.0 496.9,445.6 496.7,445.3C496.4,445.1 493.5,446.0 490.1,447.4C486.8,448.8 483.4,450.0 482.5,450.0C481.7,450.0 481.0,449.7 481.0,449.3C481.0,449.0 482.6,445.8 484.5,442.3C487.0,437.9 487.7,436.0 486.7,436.0C485.9,436.0 483.6,437.1 481.6,438.5C479.6,439.9 475.3,443.1 472.2,445.8C469.1,448.4 460.9,456.4 454.0,463.5C447.1,470.7 435.5,483.5 428.3,492.0C421.0,500.6 412.7,510.7 409.9,514.5C407.0,518.4 399.2,529.6 392.5,539.5C385.9,549.4 377.3,562.7 373.4,569.0C369.5,575.3 361.0,589.5 354.5,600.5C348.0,611.5 340.1,624.8 337.0,630.0C333.8,635.2 327.6,645.4 323.2,652.5C318.8,659.6 313.2,668.2 310.9,671.5C308.6,674.8 299.0,688.6 289.7,702.2C276.4,721.8 272.4,727.0 270.7,727.0C269.5,727.0 264.7,726.3 260.0,725.5C255.3,724.8 248.3,723.4 244.3,722.6C240.4,721.8 235.1,720.1 232.6,718.9C230.1,717.6 227.8,716.0 227.6,715.3C227.3,714.6 227.6,714.0 228.2,714.0C228.8,714.0 235.6,714.9 243.4,716.1C251.2,717.2 260.7,718.0 264.5,717.8C271.5,717.5 271.5,717.5 275.9,711.0C280.2,704.5 280.2,704.5 276.4,704.3C274.2,704.1 267.4,703.5 261.2,703.0C254.8,702.4 247.6,701.1 244.6,699.9C241.6,698.8 238.7,697.3 238.0,696.5C237.0,695.3 240.3,695.1 261.5,695.3C286.1,695.5 286.1,695.5 289.0,692.0C290.6,690.1 292.9,686.7 294.1,684.6C296.3,680.7 296.3,680.7 288.9,681.4C284.8,681.7 276.1,681.6 269.5,681.0C262.9,680.4 255.7,679.7 253.5,679.4C251.3,679.2 246.8,678.2 243.5,677.4C240.2,676.5 234.5,674.8 230.7,673.4C227.0,672.1 220.5,669.0 216.2,666.5C208.5,662.0 208.5,662.0 208.2,672.7C208.1,678.5 208.6,688.3 209.5,694.4C210.3,700.4 211.0,707.6 211.0,710.2C211.0,712.8 210.8,715.0 210.5,715.0C210.2,715.0 208.3,714.3 206.2,713.4C204.2,712.5 200.1,711.2 197.2,710.4C194.3,709.6 190.2,708.1 188.0,707.0C185.4,705.7 183.8,704.0 183.3,702.2C182.8,700.7 182.5,688.9 182.6,676.0C182.6,657.8 183.2,648.8 184.8,636.0C186.1,627.0 188.2,614.4 189.6,608.0C191.0,601.7 193.9,591.1 196.1,584.5C198.4,577.9 200.8,571.6 201.5,570.4C202.8,568.5 202.4,567.8 196.4,561.9C191.0,556.6 189.7,555.7 188.2,556.6C187.3,557.2 185.3,559.5 183.8,561.6C182.3,563.7 180.2,568.0 179.0,571.0C177.9,574.0 175.4,583.3 173.6,591.7C171.7,600.0 169.2,613.1 168.1,620.7C167.0,628.3 165.6,640.6 165.0,647.9C164.5,655.3 164.0,668.7 164.0,677.7C164.0,692.8 163.9,693.9 162.2,693.2C161.3,692.8 157.7,691.0 154.2,689.1C149.1,686.3 148.0,685.3 148.0,683.2C148.0,681.8 148.9,675.7 150.0,669.6C151.2,663.5 153.2,654.2 154.5,649.0C155.8,643.8 157.8,634.3 159.0,628.0C160.2,621.7 162.5,611.1 164.2,604.5C165.9,597.9 167.5,591.3 167.7,589.8C168.1,587.5 167.9,587.0 166.3,587.0C165.2,587.0 161.9,589.6 158.8,592.8C155.8,595.9 151.6,601.2 149.6,604.5C147.5,607.7 144.7,613.1 143.5,616.5C142.2,619.8 140.3,627.5 139.1,633.5C137.9,639.5 136.3,650.8 135.5,658.5C134.7,666.2 134.0,672.6 134.0,672.8C134.0,672.9 132.3,672.2 130.2,671.1C128.2,670.1 123.5,666.1 119.9,662.4C116.3,658.6 112.3,653.6 111.1,651.2C109.2,647.5 109.1,646.7 110.3,645.0C111.1,643.9 116.6,637.4 122.6,630.5C128.6,623.5 135.9,614.9 138.8,611.2C141.6,607.5 144.0,604.0 144.0,603.4C144.0,602.7 146.1,599.6 148.6,596.3C151.2,593.1 157.4,586.2 162.5,581.0C167.6,575.8 173.0,569.2 174.5,566.5C176.0,563.8 179.5,558.9 182.1,555.8C184.8,552.7 187.0,549.4 187.0,548.5C187.0,547.7 186.3,545.8 185.3,544.4C184.1,542.5 183.1,542.0 181.4,542.4C180.1,542.7 176.7,542.4 173.6,541.6C170.6,540.8 167.0,539.4 165.6,538.5C164.3,537.6 162.4,535.7 161.4,534.3C160.5,532.8 159.1,529.4 158.4,526.6C157.6,523.8 157.0,518.9 157.0,515.7C157.0,511.1 158.0,507.3 161.5,498.4C163.9,492.2 166.9,485.2 168.2,483.1C170.5,479.1 170.5,479.1 165.2,469.0C160.1,459.2 160.0,458.7 160.0,450.5C160.0,444.4 160.6,440.5 162.1,436.4C163.3,433.3 166.7,427.1 169.7,422.8C172.6,418.4 175.2,414.1 175.3,413.2C175.4,412.3 173.8,406.3 171.8,400.0C169.7,393.7 166.0,382.0 163.4,374.0C159.6,361.9 158.8,358.2 158.8,351.5C158.7,345.5 159.4,341.3 161.4,335.0C162.8,330.3 164.3,324.3 164.6,321.5C165.0,318.1 164.6,314.9 163.5,311.5C162.6,308.8 159.2,300.9 155.9,294.0C152.7,287.1 150.0,280.3 150.0,279.0C150.0,277.6 150.5,274.7 151.1,272.5C151.7,270.3 155.4,261.5 159.2,253.0C163.1,244.5 166.4,236.1 166.7,234.5C167.1,232.2 166.5,230.3 164.6,227.6C162.5,224.5 162.0,222.5 162.0,217.8C162.0,214.2 163.2,207.5 165.0,201.1C166.6,195.3 169.3,184.9 170.9,178.0C172.5,171.1 175.6,160.1 177.8,153.5C180.0,146.9 183.8,136.8 186.4,131.1C189.0,125.4 193.8,116.2 197.2,110.6C200.6,105.1 204.2,99.4 205.2,98.0C206.2,96.6 210.9,90.8 215.5,85.0C220.8,78.4 227.3,71.7 233.2,67.0C238.2,62.9 248.7,53.2 256.4,45.6C264.2,37.9 274.5,28.4 279.3,24.3C286.9,18.0 289.3,16.7 296.3,14.5C300.8,13.2 309.0,11.1 314.5,10.0C320.0,8.9 328.6,7.7 333.5,7.2C338.4,6.7 349.2,6.7 357.5,7.1C365.8,7.5 375.0,8.1 378.0,8.5C381.0,8.9 389.1,10.5 396.0,12.1C402.9,13.8 411.4,16.0 415.0,17.2C418.6,18.4 427.5,21.9 434.9,25.2C442.3,28.4 452.0,33.1 456.3,35.6C460.7,38.2 469.1,43.6 474.9,47.8C480.7,52.0 489.1,58.4 493.5,62.1C497.9,65.8 505.4,72.8 510.1,77.7C514.8,82.5 521.0,89.6 524.0,93.4C526.9,97.2 532.2,104.9 535.9,110.5C539.5,116.1 544.7,124.9 547.3,130.1C552.0,139.3 552.2,139.9 554.1,156.0C555.2,165.1 556.7,179.0 557.5,187.0C558.3,195.0 560.6,214.3 562.5,230.0C564.5,245.7 567.2,267.7 568.6,279.0C570.0,290.3 571.6,303.4 572.1,308.3C572.5,313.1 574.1,323.7 575.4,331.8C576.8,339.9 579.1,350.0 580.6,354.3C583.2,362.1 583.2,362.1 580.5,365.6C579.0,367.5 575.5,370.9 572.8,373.1C570.0,375.3 566.3,377.8 564.7,378.6C562.1,380.0 561.9,380.5 562.5,383.8C562.8,385.8 564.3,391.3 565.7,396.0C567.1,400.7 569.3,406.4 570.7,408.7C572.9,412.5 573.0,412.9 571.3,413.4C570.3,413.7 567.1,414.4 564.1,415.0C561.2,415.5 554.6,417.8 549.5,420.0C544.4,422.1 536.2,426.3 531.3,429.1C526.5,432.0 520.2,436.1 517.5,438.4C514.8,440.6 509.1,445.5 505.0,449.3C500.9,453.1 493.3,460.7 488.1,466.3C483.0,471.9 476.2,479.6 473.1,483.5C470.0,487.4 465.7,493.0 463.5,496.0C461.4,499.0 455.5,507.6 450.5,515.0C445.5,522.4 439.5,531.2 437.3,534.5C435.1,537.8 431.3,543.6 428.8,547.5C426.3,551.4 421.0,559.7 417.0,566.0C413.0,572.3 408.3,579.8 406.7,582.5C405.1,585.2 401.8,591.2 399.4,595.8C397.0,600.3 395.5,604.0 396.0,604.0C396.5,604.0 397.1,603.6 397.5,603.1C397.8,602.5 401.8,599.8 406.4,597.1C411.0,594.3 415.5,592.0 416.4,592.0C417.3,592.0 418.0,592.4 418.0,592.8C418.0,593.3 414.5,597.8 410.2,602.8C406.0,607.8 398.1,617.0 392.6,623.2C387.2,629.4 379.7,638.5 376.0,643.5C372.3,648.5 368.0,654.5 366.5,657.0C365.0,659.5 359.0,668.7 353.2,677.5C347.4,686.3 337.3,702.5 330.7,713.5C324.1,724.5 318.1,734.3 317.2,735.2C316.2,736.4 314.4,737.0 312.1,736.9zM455.8,727.9C452.4,728.7 452.0,728.6 452.0,727.0C452.0,726.0 454.4,720.5 457.4,714.8C460.4,709.1 464.7,700.2 467.0,695.0C469.4,689.8 475.6,677.4 480.8,667.5C486.0,657.6 493.7,643.6 497.8,636.5C501.9,629.4 509.1,617.6 513.7,610.5C518.3,603.4 524.2,594.6 526.7,591.0C529.2,587.4 535.0,579.5 539.6,573.3C544.2,567.2 550.8,558.8 554.2,554.8C557.6,550.8 566.5,541.3 574.0,533.6C581.4,526.0 591.5,516.5 596.5,512.6C601.5,508.6 609.8,502.4 615.0,498.9C620.2,495.3 627.9,490.5 632.0,488.3C636.1,486.1 643.1,482.9 647.5,481.2C651.9,479.6 659.0,477.5 663.2,476.6C667.4,475.7 673.2,475.0 675.9,475.0C678.6,475.0 681.1,474.6 681.4,474.1C681.7,473.6 678.0,471.9 673.2,470.4C665.9,467.9 662.9,467.5 654.0,467.5C644.7,467.5 642.4,467.9 634.0,470.8C628.8,472.6 619.1,476.8 612.5,480.0C605.9,483.2 594.2,489.9 586.5,494.7C578.8,499.6 567.3,507.1 560.9,511.3C554.5,515.5 549.0,519.0 548.6,519.0C548.3,519.0 548.0,518.4 548.0,517.7C548.0,516.9 550.9,512.5 554.3,507.9C557.8,503.3 568.0,492.4 576.9,483.8C587.8,473.2 592.5,468.0 591.2,468.0C590.2,468.0 586.7,468.9 583.5,470.0C580.3,471.1 577.3,472.0 576.8,472.0C576.3,472.0 576.7,470.6 577.7,468.9C578.7,467.2 581.0,464.1 582.8,461.9C586.1,458.0 586.1,458.0 581.8,459.6C579.4,460.4 574.6,462.8 571.0,465.0C567.4,467.1 558.9,473.8 552.0,479.9C545.1,486.0 539.2,491.0 538.8,491.0C538.3,491.0 538.0,490.5 538.0,490.0C538.0,489.4 539.4,486.2 541.1,482.8C544.2,476.8 544.2,476.8 540.8,479.1C539.0,480.4 535.9,482.7 533.9,484.3C531.9,485.9 527.0,490.9 523.1,495.5C519.1,500.1 514.3,505.1 512.3,506.6C509.3,508.8 508.9,509.0 509.3,507.4C509.6,506.3 510.2,503.9 510.5,502.0C511.2,498.7 510.3,499.4 496.8,512.5C488.9,520.2 479.3,529.1 475.5,532.4C471.7,535.6 466.9,539.4 464.8,540.8C462.7,542.2 460.7,543.1 460.4,542.8C460.2,542.5 461.4,539.4 463.3,535.9C465.1,532.4 470.1,524.1 474.4,517.5C478.7,510.9 485.4,501.4 489.3,496.5C493.2,491.6 501.6,481.7 507.9,474.7C514.3,467.6 524.9,457.1 531.5,451.3C538.1,445.5 546.6,438.6 550.5,436.0C554.4,433.4 559.4,430.3 561.6,429.2C563.9,428.0 569.1,426.1 573.1,425.0C577.2,423.9 583.2,423.0 586.5,423.0C589.8,423.0 596.5,423.9 601.4,425.0C606.3,426.1 611.7,427.8 613.3,428.8C615.9,430.2 617.1,432.4 620.1,440.3C622.2,445.7 624.5,451.1 625.3,452.3C626.6,454.3 629.1,454.9 646.1,457.7C659.3,459.8 669.5,462.2 677.9,464.9C684.8,467.2 691.2,469.8 692.2,470.7C693.2,471.6 694.0,473.4 694.0,474.7C694.0,476.0 692.9,479.3 691.5,482.0C690.2,484.6 688.8,488.6 688.4,490.8C687.8,494.8 687.8,494.8 693.1,496.5C696.1,497.5 703.0,500.5 708.4,503.2C713.8,505.9 722.3,511.1 727.2,514.7C732.0,518.2 736.0,521.7 736.1,522.3C736.1,523.0 736.1,556.1 736.1,596.0C736.0,668.5 736.0,668.5 731.3,672.8C728.4,675.5 721.6,679.6 713.6,683.6C706.4,687.1 695.1,691.7 688.5,693.9C681.9,696.0 670.0,698.9 662.0,700.3C654.0,701.7 644.7,703.1 641.2,703.4C635.9,703.9 635.0,703.7 635.0,702.3C635.0,701.5 637.4,697.1 640.4,692.6C643.4,688.2 650.6,678.6 656.4,671.5C662.2,664.4 669.2,655.9 672.1,652.8C674.9,649.6 676.7,647.0 676.0,647.0C675.3,647.0 670.9,649.1 666.2,651.6C661.6,654.1 653.7,659.2 648.6,662.8C643.6,666.4 634.6,673.2 628.6,677.9C622.6,682.7 615.1,688.4 611.9,690.7C608.6,693.1 604.7,695.6 603.0,696.5C601.4,697.3 599.6,698.0 599.0,698.0C598.5,698.0 598.0,697.3 598.0,696.3C598.0,695.4 600.3,691.1 603.2,686.6C606.0,682.1 610.4,675.8 612.8,672.5C615.2,669.2 617.6,665.7 618.1,664.8C618.7,663.6 618.7,663.0 618.1,663.0C617.5,663.0 612.7,666.0 607.3,669.7C601.9,673.3 592.8,679.9 587.0,684.3C581.2,688.7 574.5,693.6 572.1,695.2C569.6,696.7 567.0,698.0 566.3,698.0C565.6,698.0 565.0,697.3 565.0,696.5C565.0,695.6 566.6,691.9 568.5,688.2C570.5,684.5 573.0,679.9 574.2,678.0C575.3,676.1 578.5,670.9 581.3,666.5C584.0,662.1 588.9,654.7 592.3,650.0C595.6,645.3 601.1,638.1 604.4,634.0C607.8,629.9 615.5,621.4 621.5,615.1C627.5,608.9 637.0,600.0 642.5,595.5C648.0,591.0 656.8,584.5 662.0,581.0C667.2,577.6 675.8,572.7 681.0,570.0C686.2,567.4 692.5,564.6 695.0,563.7C697.5,562.8 704.8,560.7 711.2,558.9C717.7,557.2 723.0,555.3 723.0,554.9C723.0,554.4 721.8,553.5 720.3,552.9C718.8,552.4 714.2,551.5 710.1,550.9C705.2,550.3 702.3,549.5 701.7,548.5C701.1,547.4 699.1,547.0 693.7,547.0C689.7,547.0 681.8,547.7 676.0,548.5C670.2,549.2 661.7,550.8 657.0,551.9C652.3,553.0 646.5,554.6 644.1,555.4C641.7,556.3 638.7,557.0 637.4,557.0C636.0,557.0 635.0,556.4 635.0,555.6C635.0,554.8 636.5,552.9 638.4,551.2C640.2,549.6 644.8,546.1 648.6,543.4C652.4,540.7 662.2,535.0 670.5,530.7C685.5,522.9 685.5,522.9 675.5,523.5C670.0,523.8 663.7,524.2 661.5,524.5C657.5,525.1 657.5,525.1 661.5,521.4C665.5,517.8 665.5,517.8 653.5,518.5C646.9,518.8 638.5,519.8 634.7,520.5C631.0,521.3 625.3,523.3 622.1,525.0C618.9,526.7 611.6,531.6 605.9,535.9C600.2,540.3 590.3,549.1 583.9,555.6C577.6,562.2 569.4,571.1 565.8,575.5C562.2,579.9 554.4,590.1 548.4,598.2C542.4,606.2 536.0,615.2 534.1,618.2C532.2,621.1 526.8,629.8 522.2,637.5C517.5,645.2 511.2,656.0 508.3,661.5C505.4,667.0 499.4,678.7 495.1,687.5C490.8,696.3 486.0,706.6 484.5,710.5C483.0,714.4 481.4,718.0 480.9,718.6C480.4,719.2 475.4,721.4 469.7,723.3C464.1,725.3 457.8,727.3 455.8,727.9zM276.0,670.5C285.6,670.4 295.7,669.8 298.5,669.2C302.6,668.4 304.2,667.4 307.8,663.4C310.2,660.7 313.4,656.7 314.8,654.5C316.3,652.3 318.5,649.2 319.7,647.7C321.0,646.1 321.8,644.5 321.6,644.1C321.3,643.7 318.9,643.7 316.3,644.1C313.7,644.5 305.4,645.8 298.0,647.0C285.8,648.9 283.2,649.0 271.0,648.1C263.6,647.5 253.9,646.1 249.5,644.9C245.1,643.8 238.9,641.4 235.6,639.7C232.4,638.0 227.9,634.8 225.6,632.5C223.3,630.3 220.6,626.7 219.6,624.5C218.6,622.4 217.5,618.7 217.2,616.4C217.0,614.1 217.5,609.8 218.5,606.5C219.4,603.3 222.0,597.0 224.2,592.6C226.4,588.1 229.6,582.6 231.1,580.3C232.7,578.0 234.0,575.7 234.0,575.1C234.0,574.6 233.2,573.9 232.1,573.5C231.1,573.2 229.1,573.5 227.6,574.1C226.2,574.8 223.7,577.4 222.1,579.9C220.4,582.4 217.8,587.9 216.1,592.1C214.4,596.3 212.4,602.3 211.5,605.5C210.7,608.7 209.7,614.8 209.4,618.9C209.0,624.0 209.3,628.8 210.3,633.6C211.2,637.5 213.1,643.2 214.5,646.1C216.0,649.1 218.8,653.5 220.8,655.9C223.2,658.8 226.4,661.2 230.4,663.0C233.8,664.6 238.5,666.4 241.0,667.1C243.5,667.7 248.4,668.9 252.0,669.6C256.2,670.4 264.6,670.7 276.0,670.5zM281.5,640.5C291.6,640.2 299.4,639.4 305.5,638.0C310.4,636.9 317.3,635.1 320.7,633.9C325.3,632.4 327.8,630.8 330.2,628.0C332.0,625.9 337.5,617.3 342.4,608.8C347.3,600.4 354.3,588.8 357.8,583.0C361.4,577.2 367.1,568.0 370.6,562.4C374.0,556.9 378.4,549.4 380.4,545.9C382.4,542.3 384.0,539.0 384.0,538.7C384.0,538.3 383.6,538.0 383.1,538.0C382.6,538.0 377.5,541.6 371.8,546.1C366.1,550.6 355.6,558.6 348.5,564.0C341.4,569.4 331.8,577.3 327.2,581.5C322.7,585.8 316.3,592.4 313.1,596.4C309.9,600.3 305.2,606.7 302.7,610.6C298.8,616.6 297.5,617.9 294.6,618.4C292.7,618.8 286.1,618.6 279.9,618.0C273.7,617.4 267.5,616.4 266.1,615.7C264.7,615.0 262.5,612.5 261.3,610.0C260.1,607.5 257.7,600.5 255.9,594.5C254.2,588.5 252.2,582.3 251.5,580.9C250.7,579.5 248.3,577.5 245.9,576.5C241.8,574.6 241.8,574.6 240.0,576.7C239.0,577.9 238.0,581.6 237.6,585.1C237.2,588.5 237.2,594.2 237.5,597.9C237.9,601.5 238.8,608.0 239.6,612.4C240.4,616.7 241.7,622.3 242.5,624.8C243.9,628.8 243.9,629.4 242.5,631.0C241.2,632.4 241.2,632.9 242.3,633.8C243.1,634.5 245.7,635.7 248.1,636.6C250.5,637.5 255.7,638.8 259.5,639.6C264.3,640.5 271.1,640.8 281.5,640.5zM256.6,567.7C256.8,567.6 255.3,563.2 253.3,558.0C249.8,548.8 249.6,548.0 249.6,535.0C249.5,524.3 249.8,520.9 251.1,518.6C252.8,515.6 252.8,515.6 254.3,518.6C255.1,520.2 256.9,522.5 258.3,523.6C260.0,525.1 261.3,528.0 262.5,533.1C263.5,537.2 266.0,543.9 268.1,548.0C270.4,552.4 274.1,557.7 277.1,560.5C282.1,565.5 282.1,565.5 277.3,555.6C272.6,545.7 272.6,545.7 272.2,532.8C271.9,524.3 272.1,520.0 272.8,520.0C273.4,520.0 275.3,522.6 277.1,525.8C278.9,528.9 282.1,534.1 284.2,537.3C286.4,540.5 290.0,544.4 292.2,546.0C294.5,547.7 296.5,548.8 296.7,548.6C297.0,548.4 295.4,545.2 293.1,541.5C290.9,537.8 288.6,532.3 288.0,529.3C287.3,526.3 287.1,523.6 287.4,523.2C287.8,522.9 289.9,524.4 292.3,526.7C294.6,528.9 297.6,531.4 299.0,532.4C300.3,533.3 303.1,534.0 305.1,534.0C307.1,534.0 312.8,532.8 317.6,531.4C322.5,530.0 330.3,526.8 335.0,524.3C339.7,521.7 348.0,517.0 353.5,513.7C359.0,510.4 369.1,504.0 376.0,499.5C382.9,495.1 392.3,488.3 397.0,484.5C401.7,480.7 409.0,474.5 413.2,470.7C417.5,466.9 423.2,461.0 425.9,457.6C428.5,454.3 431.9,449.2 433.3,446.5C434.7,443.7 436.7,438.7 437.8,435.3C438.9,431.9 440.6,424.4 441.5,418.6C442.4,412.9 443.0,406.9 442.8,405.3C442.5,402.5 442.5,402.5 439.9,406.2C438.5,408.3 435.4,411.4 433.0,413.1C428.8,416.1 428.7,416.2 429.4,413.9C429.7,412.6 430.3,409.7 430.6,407.5C431.3,403.5 431.3,403.5 428.0,406.5C426.2,408.1 421.6,413.3 417.8,418.0C413.9,422.7 408.2,428.9 405.1,431.8C402.0,434.7 398.2,437.7 396.7,438.6C395.1,439.4 393.5,439.9 393.2,439.5C392.8,439.1 392.5,433.6 392.5,427.2C392.5,420.1 393.0,414.0 393.8,411.8C394.5,409.7 398.2,403.6 402.0,398.3C405.8,392.9 410.7,386.0 412.9,382.9C415.2,379.8 419.0,373.5 421.4,368.9C423.9,364.3 426.8,358.0 427.8,355.0C428.9,352.0 430.1,348.3 430.4,346.8C430.8,345.2 430.7,344.0 430.2,344.0C429.8,344.0 427.9,345.6 426.0,347.5C424.1,349.4 422.0,351.0 421.3,351.0C420.6,351.0 420.0,350.3 420.0,349.5C420.0,348.7 421.6,343.7 423.5,338.4C425.4,333.0 426.8,328.5 426.6,328.3C426.4,328.1 423.0,331.5 418.9,335.7C414.8,340.0 405.4,351.6 397.9,361.5C390.4,371.4 382.2,382.8 379.7,386.8C377.1,390.7 374.4,394.0 373.6,394.0C372.8,394.0 371.0,392.0 369.6,389.6C368.2,387.2 363.6,382.1 359.5,378.3C354.7,373.9 352.0,370.6 352.0,369.2C352.0,367.8 353.7,366.1 357.8,363.6C360.9,361.7 366.4,357.8 370.0,355.0C373.6,352.1 378.5,347.9 381.0,345.5C383.5,343.2 387.5,339.8 389.9,338.1C392.3,336.4 394.5,335.2 394.8,335.4C395.0,335.7 394.4,337.9 393.5,340.5C392.5,343.0 391.9,345.3 392.2,345.5C392.5,345.8 395.8,343.8 399.6,341.0C403.4,338.3 408.2,334.6 410.2,332.9C412.3,331.3 416.8,326.3 420.2,321.9C423.7,317.4 427.3,312.6 428.2,311.1C429.9,308.4 429.9,308.3 426.8,303.4C425.1,300.7 420.9,292.6 417.4,285.5C414.0,278.4 409.1,267.3 406.5,261.0C403.9,254.7 400.0,242.8 398.0,234.5C395.2,223.8 393.6,219.1 392.1,217.9C391.0,217.0 387.0,215.5 383.3,214.7C379.6,213.8 371.5,212.0 365.5,210.6C359.4,209.2 345.0,206.7 333.5,205.0C316.5,202.6 307.5,201.9 286.5,201.4C269.4,201.0 255.5,201.1 246.0,201.9C238.0,202.6 225.7,204.3 218.6,205.6C211.6,207.0 202.1,209.4 197.6,211.1C193.2,212.7 187.1,215.4 184.2,217.1C181.3,218.7 178.1,221.5 177.0,223.2C176.0,224.9 174.6,228.6 173.9,231.3C173.3,234.1 170.3,241.5 167.4,247.7C164.5,253.9 162.4,259.0 162.8,259.0C163.2,259.0 165.5,258.3 167.9,257.4C172.0,256.0 173.4,256.1 188.9,258.5C198.0,260.0 207.0,261.8 208.9,262.6C210.7,263.4 212.9,264.0 213.6,264.0C214.4,264.0 216.1,261.8 217.4,259.2C218.7,256.5 220.5,253.8 221.3,253.2C222.5,252.2 222.8,252.6 223.4,255.7C223.7,257.8 224.0,261.1 224.0,263.0C224.0,264.9 223.3,268.3 222.4,270.7C220.8,274.9 220.8,275.0 223.8,279.7C225.5,282.3 227.4,285.8 228.0,287.4C228.9,289.8 228.4,292.5 224.9,304.4C222.7,312.1 219.5,323.0 217.8,328.5C216.2,334.0 214.4,338.9 213.9,339.4C213.4,340.0 213.0,341.5 213.0,342.8C213.0,344.1 212.3,347.7 211.4,350.8C210.5,354.0 207.4,361.6 204.4,367.8C201.4,374.0 199.0,380.3 199.0,381.8C199.0,383.3 199.9,386.0 201.0,387.7C202.2,389.7 203.5,390.7 204.3,390.4C205.1,390.1 209.7,391.3 214.5,392.9C219.4,394.6 224.8,396.0 226.6,396.0C229.1,396.0 230.7,395.1 233.3,392.4C236.7,388.7 236.7,388.7 248.6,388.4C259.9,388.1 260.6,388.2 264.1,390.5C266.2,392.0 268.4,392.8 269.3,392.4C270.2,392.1 271.4,390.1 272.0,388.1C272.6,385.9 272.6,383.2 272.1,381.3C271.6,379.7 270.7,377.3 270.0,376.1C269.4,374.9 267.4,373.0 265.7,372.0C263.9,370.9 261.6,370.0 260.5,370.0C259.3,370.0 256.7,370.9 254.5,372.0C252.3,373.1 250.0,374.0 249.3,374.0C248.5,374.0 248.0,372.8 248.0,371.2C248.0,369.5 249.0,367.5 250.3,366.2C251.6,364.9 254.6,363.7 257.2,363.4C259.8,363.0 263.3,363.3 265.3,363.9C267.5,364.7 271.1,367.5 274.4,371.1C278.2,375.2 280.4,378.6 281.6,382.3C283.2,387.4 283.2,387.8 281.2,392.2C279.8,395.4 277.3,398.3 272.9,401.9C269.4,404.7 264.5,407.7 262.0,408.6C259.5,409.6 257.3,410.5 257.1,410.6C257.0,410.8 257.9,412.4 259.2,414.2C260.5,416.0 262.2,418.7 262.9,420.2C263.7,421.7 265.9,424.4 267.8,426.2C269.8,428.0 271.0,428.8 270.4,428.0C269.8,427.2 267.7,423.9 265.7,420.8C263.7,417.7 262.0,414.9 262.0,414.6C262.0,414.3 263.2,414.0 264.6,414.0C266.5,414.0 269.9,416.7 278.1,424.7C284.1,430.5 289.3,435.0 289.7,434.7C290.1,434.3 289.3,432.1 288.0,429.7C286.7,427.4 284.2,423.3 282.4,420.6C280.6,417.9 279.3,415.3 279.6,414.8C279.9,414.4 281.3,414.0 282.8,414.0C284.3,414.0 287.4,414.9 289.6,415.9C291.9,416.9 298.4,422.2 304.1,427.6C309.8,433.1 316.8,438.9 319.5,440.7C322.3,442.4 325.8,444.2 327.4,444.6C329.7,445.2 330.1,445.0 329.5,443.9C329.0,443.1 325.6,439.1 322.0,435.0C318.3,430.9 313.9,425.4 312.1,422.8C310.3,420.1 309.2,418.0 309.5,418.0C309.8,418.0 312.2,419.1 314.8,420.4C317.5,421.8 322.3,425.0 325.6,427.6C328.8,430.2 335.9,436.6 341.2,441.9C346.6,447.2 351.0,450.9 351.0,450.2C351.0,449.5 349.6,446.1 347.9,442.7C346.1,439.3 343.4,434.5 341.7,432.0C340.1,429.5 337.1,425.8 335.2,423.8C333.2,421.7 331.9,419.8 332.2,419.4C332.6,419.1 334.9,419.8 337.4,420.9C340.0,422.0 344.8,425.5 348.2,428.7C351.5,431.9 356.0,437.1 358.1,440.3C360.2,443.5 362.6,448.3 363.5,451.0C364.8,454.9 364.9,456.7 364.0,459.9C363.4,462.2 360.4,467.2 357.1,471.3C353.8,475.3 347.8,481.8 343.6,485.8C338.7,490.4 335.2,493.0 333.7,493.0C332.1,493.0 330.5,491.3 327.7,486.9C325.5,483.6 321.6,479.1 318.8,477.0C316.1,474.8 309.6,469.1 304.4,464.4C299.3,459.6 294.1,455.1 293.1,454.3C291.3,453.1 290.6,453.5 285.3,458.7C280.5,463.5 277.5,465.4 268.2,469.5C262.1,472.2 257.0,474.8 257.0,475.2C257.0,475.5 259.2,476.6 262.0,477.5C264.8,478.4 267.0,479.5 267.0,479.8C267.0,480.2 264.3,483.3 260.9,486.8C254.9,493.0 254.9,493.0 239.7,493.0C231.3,493.0 223.5,492.7 222.4,492.4C221.1,492.1 219.4,489.9 218.0,486.9C216.3,483.3 215.9,481.7 216.7,480.9C217.3,480.3 218.8,479.3 220.1,478.6C221.3,478.0 222.5,476.9 222.8,476.2C223.1,475.3 221.4,475.0 216.5,475.0C210.1,475.0 209.8,474.9 205.2,470.6C202.6,468.2 199.7,464.8 198.8,463.2C197.1,460.3 197.1,460.3 205.8,459.6C210.6,459.2 226.4,458.7 241.0,458.4C255.6,458.2 270.6,457.5 274.5,457.0C278.4,456.5 283.2,455.5 285.4,454.9C287.6,454.3 288.9,453.5 288.4,453.0C287.9,452.5 283.4,451.2 278.5,450.1C273.6,449.0 263.0,447.3 255.0,446.4C240.5,444.7 240.5,444.7 236.3,447.4C232.2,450.1 232.2,450.1 227.0,447.5C223.7,445.8 221.1,445.1 219.7,445.5C218.5,445.9 213.2,448.0 208.0,450.2C200.2,453.4 197.4,455.3 192.2,460.3C186.0,466.4 186.0,466.4 186.0,473.1C186.0,476.8 186.7,483.5 187.6,488.1C188.7,494.0 189.0,499.1 188.6,505.0C188.3,509.7 187.7,516.1 187.4,519.2C186.9,523.8 187.3,526.7 189.4,533.7C190.9,538.6 193.7,544.9 195.7,547.8C197.6,550.6 199.7,553.0 200.2,553.0C200.8,553.0 200.9,551.1 200.6,548.2C200.2,545.2 200.5,541.4 201.5,537.5C202.4,534.2 204.5,529.4 206.1,526.8C207.8,524.3 209.8,521.6 210.6,520.9C211.8,519.9 211.9,521.0 211.4,529.6C210.9,538.5 211.1,540.3 213.4,547.7C215.5,554.3 217.0,557.0 221.1,561.4C223.9,564.5 226.5,567.0 226.9,567.0C227.3,567.0 226.3,564.2 224.6,560.8C221.6,554.8 221.5,554.0 221.6,542.5C221.6,532.3 222.0,529.5 224.1,524.0C226.2,518.3 226.8,517.5 229.4,517.2C231.0,517.0 233.7,517.1 235.4,517.4C238.5,518.0 238.5,518.0 238.6,529.3C238.7,538.3 239.1,541.6 240.9,546.2C242.1,549.3 244.7,554.0 246.7,556.7C248.7,559.3 251.7,563.0 253.3,564.7C255.0,566.5 256.5,567.9 256.6,567.7zM169.4,447.0C169.7,447.0 172.5,443.6 175.7,439.3C178.8,435.1 183.6,429.5 186.3,426.8C189.0,424.1 193.5,420.1 196.2,417.9C199.4,415.4 202.2,414.0 204.1,414.0C205.7,414.0 207.9,414.6 209.0,415.2C210.7,416.3 211.5,416.2 213.7,415.0C215.1,414.2 216.5,413.1 216.7,412.5C216.8,411.9 214.5,410.2 211.5,408.6C208.4,407.0 203.9,403.4 201.4,400.7C198.9,397.9 195.9,393.8 194.8,391.6C193.2,388.4 192.9,386.4 193.3,381.8C193.7,377.0 195.0,374.0 200.9,363.7C207.2,352.7 208.2,350.1 210.1,340.9C211.2,335.2 213.7,325.7 215.6,319.9C217.5,314.1 219.0,308.4 219.0,307.4C219.0,306.3 218.5,304.9 217.8,304.2C217.1,303.5 216.0,303.0 215.3,303.0C214.6,303.0 211.9,304.4 209.3,306.0C206.0,308.1 203.4,309.0 200.3,309.0C197.4,309.0 196.0,308.6 196.0,307.7C196.0,307.0 194.7,305.4 193.0,304.2C190.5,302.3 190.0,301.2 190.0,298.0C190.0,294.8 189.6,294.0 188.2,294.0C187.1,294.0 185.6,294.8 184.8,295.8C183.9,296.7 182.7,298.6 182.0,299.8C181.4,301.1 181.1,303.2 181.4,304.4C181.7,305.7 183.1,307.2 184.5,307.8C185.9,308.5 188.2,309.0 189.5,309.0C190.9,309.0 192.0,309.4 192.0,310.0C192.0,310.6 189.6,311.0 186.8,311.0C183.7,311.0 179.7,310.1 177.2,309.0C174.9,308.0 172.4,307.3 171.7,307.6C170.8,307.9 170.5,310.7 170.5,316.8C170.5,323.5 169.8,327.8 167.6,335.4C165.4,343.1 164.9,346.4 165.4,350.4C165.7,353.2 167.5,360.5 169.4,366.5C171.3,372.6 174.7,384.1 176.9,392.2C179.2,400.4 181.0,408.6 181.0,410.7C181.0,413.0 180.1,415.5 178.5,417.6C177.2,419.3 175.1,423.2 173.9,426.2C172.7,429.1 171.1,434.0 170.4,437.0C169.6,440.0 169.0,443.5 169.0,444.8C169.0,446.0 169.2,447.0 169.4,447.0zM212.4,438.0C213.7,438.0 215.9,437.1 217.3,436.0C218.7,434.8 221.9,430.7 224.3,426.7C226.8,422.7 229.1,418.5 229.5,417.2C229.9,415.6 229.7,414.8 228.5,414.4C227.5,414.0 225.9,414.7 224.4,416.1C223.0,417.4 219.2,422.5 215.9,427.3C212.7,432.2 210.0,436.6 210.0,437.1C210.0,437.6 211.1,438.0 212.4,438.0zM233.0,437.2C234.4,436.9 239.2,436.5 243.8,436.4C248.3,436.3 252.0,435.8 252.0,435.4C252.0,434.9 249.9,431.7 247.2,428.2C242.5,421.9 242.5,421.9 242.2,426.5C242.0,429.0 241.5,431.0 241.0,431.0C240.5,431.0 239.1,429.2 238.0,427.0C236.9,424.8 235.6,423.0 235.2,423.0C234.8,423.0 232.8,425.7 230.8,428.9C228.7,432.2 227.0,435.3 227.0,435.8C227.0,436.4 227.8,437.1 228.8,437.3C229.7,437.6 231.6,437.5 233.0,437.2zM474.0,387.8C475.4,387.9 478.2,387.3 480.3,386.6C482.4,385.8 485.1,384.4 486.2,383.3C487.3,382.3 489.4,379.2 490.8,376.5C492.2,373.8 493.6,370.1 494.0,368.4C494.4,366.6 494.4,364.7 494.0,364.0C493.5,363.1 491.9,363.5 488.4,365.4C484.8,367.3 482.0,368.0 477.9,368.0C474.8,368.0 472.1,367.7 471.7,367.4C471.4,367.1 472.5,363.2 474.1,358.7C475.7,354.3 477.0,349.7 476.8,348.6C476.6,346.9 475.8,347.6 473.2,351.7C471.4,354.5 467.7,361.8 465.1,367.8C462.4,373.8 460.0,379.9 459.6,381.4C459.1,383.3 459.5,384.2 461.0,385.0C462.2,385.6 465.0,386.5 467.3,387.0C469.6,387.4 472.6,387.8 474.0,387.8zM570.5,363.0C571.8,363.0 573.5,362.7 574.4,362.4C575.3,362.1 576.0,361.3 576.0,360.6C576.0,359.9 573.9,357.8 571.2,355.8C568.6,353.8 565.1,350.6 563.3,348.8C561.5,347.0 558.2,342.1 556.0,338.0C553.7,333.9 549.9,326.0 547.5,320.5C545.2,315.0 541.9,306.0 540.1,300.5C538.4,295.0 535.4,283.1 533.5,274.0C531.5,264.9 528.8,250.1 527.5,241.0C526.2,231.9 523.5,215.9 521.6,205.5C519.7,195.1 517.9,184.5 517.6,182.0C517.2,179.5 515.8,173.4 514.3,168.5C512.9,163.6 510.8,157.7 509.7,155.5C508.6,153.3 505.1,147.6 501.9,142.9C498.7,138.1 493.3,131.0 489.9,127.0C486.4,123.0 479.0,115.6 473.4,110.6C467.4,105.2 458.8,98.9 452.8,95.3C447.1,92.0 439.0,87.4 434.8,85.1C430.5,82.9 423.1,79.4 418.3,77.4C413.5,75.5 403.4,71.7 395.9,69.0C388.5,66.4 377.7,63.2 371.9,62.0C366.2,60.8 354.3,59.0 345.5,57.9C336.7,56.9 323.9,56.0 317.0,55.9C310.1,55.9 298.9,56.6 292.0,57.5C285.1,58.4 275.2,60.0 269.8,61.1C264.5,62.1 258.5,63.0 256.5,63.0C253.6,63.0 252.9,62.6 253.2,61.3C253.4,60.3 255.9,58.6 259.4,57.3C262.6,55.9 269.3,53.8 274.3,52.5C279.2,51.1 289.0,49.5 295.9,48.9C303.4,48.2 314.6,48.0 323.5,48.4C331.8,48.7 344.6,49.9 352.0,50.9C359.4,52.0 369.8,53.8 375.0,55.0C380.2,56.2 388.3,58.3 393.0,59.7C397.7,61.1 407.4,64.6 414.5,67.5C421.6,70.4 431.2,74.6 435.7,76.8C440.2,79.1 447.8,83.3 452.7,86.1C457.5,89.0 466.4,94.6 472.3,98.7C478.2,102.7 483.8,106.0 484.6,106.0C485.4,106.0 488.0,107.3 490.3,108.9C492.6,110.5 498.4,115.3 503.1,119.6C507.8,124.0 512.4,128.3 513.4,129.2C514.4,130.2 515.6,131.0 516.1,131.0C516.6,131.0 517.0,130.5 517.0,129.9C517.0,129.3 515.6,126.2 514.0,123.1C512.3,120.0 506.2,111.0 500.4,103.2C494.6,95.3 490.0,88.2 490.2,87.4C490.4,86.3 491.6,86.5 495.6,88.4C498.3,89.7 502.8,92.3 505.6,94.2C508.3,96.2 511.8,98.6 513.5,99.6C515.7,101.0 516.2,101.1 515.5,100.0C515.1,99.2 512.9,95.8 510.7,92.5C508.5,89.2 503.0,82.7 498.6,78.1C494.1,73.5 485.1,65.6 478.5,60.6C471.9,55.5 463.1,49.2 459.0,46.5C454.9,43.8 445.9,38.9 439.0,35.4C432.1,32.0 421.1,27.3 414.5,25.0C407.9,22.8 397.8,19.8 392.0,18.4C386.2,17.0 376.3,15.2 370.0,14.4C363.7,13.6 353.6,13.0 347.5,13.0C341.4,13.0 332.6,13.5 328.0,14.0C323.3,14.6 314.3,16.2 308.0,17.5C301.6,18.8 295.5,20.2 294.5,20.6C293.4,21.0 289.8,23.2 286.5,25.6C283.2,27.9 276.9,33.6 272.4,38.2C268.0,42.8 261.7,49.4 258.5,53.0C255.3,56.5 250.6,60.8 248.1,62.4C245.6,64.0 239.8,68.7 235.2,72.8C230.7,76.9 223.8,84.2 220.1,88.9C216.3,93.6 211.0,100.9 208.3,105.0C205.5,109.1 200.2,118.6 196.4,126.0C192.1,134.3 187.6,145.1 184.7,154.0C182.1,162.0 179.4,171.4 178.6,175.0C177.9,178.6 177.7,181.7 178.2,181.8C178.6,182.0 180.5,181.3 182.3,180.3C184.0,179.3 188.0,177.4 191.0,176.3C194.0,175.1 198.2,173.9 200.2,173.6C202.3,173.4 204.0,173.4 204.0,173.7C204.0,174.0 203.2,174.9 202.2,175.6C201.3,176.4 195.7,179.5 189.9,182.6C184.0,185.7 177.6,189.5 175.6,191.2C173.6,192.8 172.0,194.9 172.0,195.8C172.0,196.7 171.0,201.2 169.9,205.8C168.6,210.9 168.1,214.5 168.7,215.1C169.2,215.6 171.2,214.9 173.7,213.0C175.9,211.3 181.9,208.1 187.0,205.9C192.0,203.7 201.4,200.5 207.8,198.9C214.3,197.2 225.3,195.2 232.5,194.3C241.4,193.2 253.8,192.7 271.5,192.7C285.8,192.7 303.8,193.2 311.4,193.9C319.1,194.5 331.4,196.0 338.7,197.0C346.0,198.1 358.4,200.3 366.2,201.9C374.1,203.5 387.0,206.5 394.9,208.5C402.8,210.5 416.3,214.4 424.9,217.2C433.5,220.0 447.7,225.1 456.4,228.6C465.1,232.1 473.3,235.0 474.6,235.0C475.9,235.0 477.0,234.6 477.0,234.1C477.0,233.6 475.2,231.6 472.9,229.7C470.7,227.8 462.9,223.0 455.7,219.2C448.4,215.3 438.0,210.6 432.5,208.6C427.0,206.7 418.0,203.7 412.5,202.0C407.0,200.4 401.8,198.6 401.0,198.0C399.7,197.1 399.7,196.9 401.0,195.9C401.9,195.3 405.0,195.1 408.5,195.4C411.8,195.7 419.9,197.3 426.5,199.0C433.1,200.7 445.3,204.4 453.6,207.1C461.9,209.8 469.0,212.0 469.4,212.0C469.8,212.0 469.7,211.4 469.3,210.6C468.9,209.8 466.6,207.8 464.3,206.1C462.0,204.5 457.1,201.6 453.3,199.6C449.5,197.7 443.6,195.0 440.1,193.6C436.7,192.2 427.5,189.3 419.7,187.1C411.9,184.9 399.5,181.7 392.2,180.0C384.9,178.3 373.2,176.1 366.2,175.0C359.2,173.9 345.6,172.2 336.0,171.1C326.4,170.0 311.8,168.6 303.7,168.0C295.6,167.4 279.8,167.0 268.7,167.1C257.5,167.2 247.8,167.0 247.2,166.6C246.5,166.2 246.0,165.5 246.0,165.0C246.0,164.5 247.7,163.6 249.8,163.1C251.8,162.6 258.4,161.7 264.4,161.1C270.4,160.5 279.9,160.0 285.4,160.0C291.0,160.0 302.0,160.5 310.0,161.0C318.0,161.6 328.6,162.5 333.5,163.0C338.4,163.6 348.8,164.9 356.5,166.1C364.2,167.2 376.6,169.2 384.0,170.6C391.4,172.0 402.9,174.6 409.5,176.5C416.1,178.4 424.2,180.6 427.5,181.4C430.8,182.3 440.4,185.2 448.9,187.9C457.4,190.7 464.5,192.8 464.7,192.6C464.9,192.4 464.8,191.7 464.5,190.9C464.2,190.1 460.9,187.4 457.2,184.8C453.5,182.2 447.8,178.7 444.5,177.0C441.2,175.3 435.8,172.1 432.6,169.7C429.3,167.4 426.5,164.9 426.2,164.2C426.0,163.4 426.9,163.0 429.2,163.0C431.0,163.0 438.1,164.6 445.0,166.4C451.9,168.3 457.6,169.7 457.8,169.5C458.0,169.3 455.1,166.7 451.3,163.7C447.6,160.7 440.9,156.0 436.5,153.4C431.7,150.5 422.6,146.6 413.5,143.5C405.3,140.6 398.4,137.8 398.2,137.2C398.0,136.6 398.8,135.9 400.0,135.5C401.1,135.2 406.0,135.3 410.8,135.9C415.6,136.5 423.1,137.9 427.4,139.0C431.8,140.2 439.5,142.7 444.7,144.7C449.8,146.7 454.3,148.1 454.6,147.8C454.9,147.5 454.3,145.4 453.4,143.1C452.2,140.1 449.9,137.6 444.6,133.7C440.7,130.7 432.7,125.5 426.9,122.1C421.0,118.7 415.4,115.0 414.5,114.0C412.8,112.1 412.8,112.0 414.7,112.0C415.8,112.0 422.1,113.1 428.6,114.4C435.2,115.8 444.7,118.2 449.8,119.8C457.5,122.3 459.0,122.5 459.0,121.2C459.0,120.4 457.6,117.2 455.9,114.2C454.2,111.2 453.1,108.6 453.4,108.3C453.7,108.0 455.5,108.9 457.5,110.4C459.4,111.9 461.8,114.2 462.6,115.6C463.5,116.9 465.5,122.7 467.0,128.4C468.6,134.2 470.5,143.3 471.4,148.7C472.3,154.1 473.9,166.4 474.9,176.0C476.0,185.6 477.6,200.0 478.5,208.0C479.4,216.0 480.8,227.8 481.6,234.2C482.4,240.7 484.2,249.7 485.6,254.2C487.0,258.8 490.6,267.4 493.4,273.5C496.3,279.6 502.2,290.8 506.4,298.5C510.7,306.2 518.1,318.1 522.9,325.0C527.6,331.9 534.9,340.8 539.0,344.8C545.0,350.7 548.6,353.2 557.3,357.6C563.3,360.6 569.2,363.0 570.5,363.0zM189.1,327.0C185.0,327.0 183.9,326.5 181.0,323.5C177.6,320.0 177.6,320.0 182.2,320.0C184.7,320.0 191.2,319.1 196.5,318.0C201.8,316.9 206.6,316.0 207.1,316.0C207.6,316.0 208.0,316.6 208.0,317.3C208.0,318.0 206.8,319.8 205.2,321.3C203.7,322.7 200.5,324.6 198.1,325.5C195.7,326.3 191.6,327.0 189.1,327.0zM316.5,323.8C313.8,323.8 309.1,323.4 306.1,322.9C303.1,322.4 299.3,321.1 297.5,320.0C295.8,318.9 293.5,317.1 292.4,315.9C290.5,313.7 290.5,313.7 297.5,314.6C301.4,315.1 309.9,315.5 316.5,315.4C327.3,315.4 329.4,315.0 337.8,312.1C342.9,310.3 347.6,309.0 348.2,309.2C348.8,309.4 348.0,311.0 346.5,312.8C345.0,314.6 341.7,317.2 339.2,318.7C336.7,320.2 331.7,321.9 328.1,322.6C324.5,323.4 319.2,323.9 316.5,323.8zM271.8,312.5C271.6,312.7 270.0,312.3 268.2,311.6C266.0,310.9 263.9,308.8 261.6,305.2C258.8,300.8 258.3,299.1 258.7,296.2C258.9,294.1 259.6,291.2 260.1,289.6C260.6,288.0 261.0,286.3 261.0,285.9C261.0,285.4 259.9,285.0 258.6,285.0C257.2,285.0 255.0,284.6 253.6,284.0C252.2,283.5 251.0,282.4 251.0,281.6C251.0,280.8 248.9,278.7 246.4,276.9C243.5,274.9 241.1,272.2 239.9,269.6C238.6,266.8 238.0,263.2 238.0,258.2C238.0,253.3 238.5,249.9 239.7,247.7C241.3,244.5 241.3,244.5 242.6,251.2C243.3,254.8 244.4,258.9 245.0,260.2C245.7,261.5 247.2,263.5 248.3,264.8C249.4,266.0 251.2,267.0 252.2,267.0C253.6,267.0 254.0,266.2 254.0,263.0C254.0,260.1 254.7,258.2 256.8,255.9C259.4,252.9 259.7,252.9 269.5,252.6C277.7,252.4 281.7,251.7 291.5,248.6C298.1,246.6 306.8,243.8 310.8,242.3C316.9,240.2 319.4,239.8 325.3,240.2C330.3,240.5 334.5,241.5 339.0,243.6C342.6,245.2 349.8,249.7 355.0,253.6C360.2,257.6 368.5,264.9 373.4,269.9C378.4,274.8 382.2,279.1 381.9,279.4C381.7,279.6 378.7,281.0 375.3,282.4C371.9,283.8 368.0,285.0 366.8,285.0C365.5,285.0 362.7,284.0 360.5,282.9C358.3,281.7 352.9,277.9 348.4,274.5C344.0,271.0 337.5,267.0 334.0,265.5C328.1,263.0 326.7,262.8 317.5,263.2C309.2,263.5 306.7,264.0 302.5,266.2C299.8,267.6 295.7,270.2 293.6,271.9C291.4,273.7 287.0,278.5 283.7,282.8C280.5,287.0 276.1,292.4 273.9,294.7C270.7,298.2 270.0,299.7 270.0,302.9C270.0,305.1 270.5,308.1 271.0,309.6C271.6,311.1 271.9,312.4 271.8,312.5zM321.3,303.5C314.1,304.0 314.1,304.0 310.3,299.9C308.2,297.7 306.0,294.9 305.3,293.7C304.6,292.5 304.1,290.5 304.0,289.2C304.0,287.9 303.4,287.0 302.4,287.0C301.6,287.0 300.0,287.4 299.0,288.0C298.0,288.5 296.2,290.3 295.1,291.9C293.2,294.5 293.1,295.0 294.5,297.6C295.3,299.2 295.6,300.8 295.2,301.1C294.8,301.5 290.9,301.5 286.5,301.2C280.4,300.7 278.5,300.1 278.2,298.9C278.1,298.1 279.8,294.5 282.1,291.1C284.4,287.7 288.0,283.7 290.0,282.4C292.2,280.9 297.2,279.2 302.0,278.3C309.1,276.9 312.1,276.8 322.4,277.7C331.3,278.5 336.6,279.6 342.5,281.8C346.9,283.4 353.0,285.7 356.0,287.0C359.0,288.2 363.0,289.9 364.9,290.8C366.8,291.8 368.3,292.9 368.3,293.5C368.2,294.1 364.7,295.7 360.3,297.2C356.0,298.6 351.7,299.9 350.7,299.9C349.7,300.0 348.5,298.9 348.0,297.5C347.5,296.1 346.4,295.0 345.5,295.0C344.7,295.0 341.8,296.6 339.1,298.5C336.5,300.4 333.0,302.2 331.4,302.5C329.8,302.7 325.3,303.2 321.3,303.5zM318.7,300.7C322.4,300.4 325.2,299.5 328.0,297.5C330.3,295.9 332.6,293.8 333.1,292.8C333.8,291.4 333.8,290.4 332.9,289.4C332.3,288.6 331.0,288.0 330.1,288.0C329.2,288.0 327.5,289.7 326.3,291.9C324.8,294.5 322.5,296.5 318.8,298.4C313.5,301.0 313.5,301.0 318.7,300.7zM171.8,291.3C178.5,287.5 178.5,287.5 193.7,287.5C202.1,287.5 209.0,287.2 209.0,286.8C209.0,286.4 208.0,285.4 206.8,284.6C205.5,283.8 200.3,281.7 195.2,280.0C190.2,278.3 184.5,276.1 182.7,275.0C179.7,273.2 179.3,273.2 176.3,274.7C174.5,275.5 172.0,277.6 170.7,279.4C169.4,281.1 167.6,283.9 166.6,285.7C165.7,287.5 165.0,290.3 165.0,292.0C165.0,295.1 165.0,295.1 171.8,291.3zM391.3,194.9C389.2,194.9 382.8,194.0 377.0,193.0C371.2,191.9 363.4,190.3 359.5,189.3C354.3,188.0 352.4,187.0 352.2,185.6C351.8,183.9 352.4,183.8 360.2,184.5C364.7,184.9 372.4,186.0 377.2,187.0C381.9,188.0 387.6,189.8 389.8,190.9C392.1,192.0 394.1,193.4 394.5,194.0C394.9,194.6 393.6,195.0 391.3,194.9zM314.2,183.9C312.2,183.8 309.1,183.5 307.5,183.3C305.9,183.1 303.0,182.7 301.2,182.4C299.4,182.1 298.2,181.5 298.5,180.9C298.9,180.4 302.4,180.0 306.5,180.0C310.6,180.0 315.1,180.4 316.5,181.0C317.9,181.5 318.8,182.4 318.5,183.0C318.2,183.5 316.2,183.9 314.2,183.9zM253.8,127.0C241.1,127.0 241.1,127.0 237.4,121.4C235.4,118.4 233.2,114.2 232.5,112.2C231.7,109.7 231.5,105.9 231.9,100.8C232.2,96.6 232.9,92.8 233.4,92.3C233.9,91.9 234.0,95.0 233.8,99.2C233.5,103.4 233.6,107.4 234.0,108.0C234.5,108.7 239.5,108.8 251.1,108.3C267.5,107.5 267.5,107.5 268.1,100.5C268.4,96.2 269.5,92.0 270.8,89.6C272.0,87.4 272.7,85.3 272.4,84.8C272.1,84.4 270.8,84.0 269.5,84.0C267.8,84.0 266.3,85.2 264.5,87.7C263.1,89.8 261.7,93.6 261.4,96.2C260.8,100.9 260.8,100.9 251.4,101.2C242.7,101.5 242.0,101.4 242.0,99.6C242.0,98.6 243.1,96.7 244.5,95.4C245.9,94.1 247.0,92.6 247.0,92.1C247.0,91.5 246.3,90.5 245.4,89.8C244.6,89.1 243.0,87.7 241.9,86.8C240.9,85.8 240.0,84.3 240.0,83.5C240.0,82.7 241.4,80.5 243.1,78.6C244.7,76.7 248.2,74.0 250.7,72.6C253.2,71.1 255.6,70.0 256.0,70.0C256.4,70.0 256.7,72.6 256.6,75.8C256.5,81.5 256.5,81.5 260.2,81.8C262.3,82.0 264.7,81.7 265.5,81.3C266.9,80.5 266.7,79.9 264.5,76.6C263.1,74.5 262.0,72.4 262.2,72.0C262.4,71.6 264.7,71.9 267.4,72.7C271.0,73.8 273.8,75.7 278.1,79.9C282.8,84.7 284.2,86.8 285.9,92.4C287.1,96.2 288.0,100.7 288.0,102.4C288.0,104.3 286.5,108.0 284.4,111.6C282.5,114.8 279.2,119.2 277.2,121.3C275.2,123.3 272.0,125.5 270.0,126.0C268.1,126.5 260.8,127.0 253.8,127.0zM249.7,83.0C251.4,83.0 253.5,82.7 254.4,82.4C255.8,81.9 255.7,81.3 253.8,77.9C252.5,75.5 251.0,74.1 250.1,74.2C249.3,74.4 247.5,76.1 246.3,77.9C244.5,80.6 244.3,81.5 245.2,82.2C245.9,82.6 247.9,83.0 249.7,83.0zM286.2,41.0C282.5,40.9 282.5,40.9 290.5,33.5C294.9,29.4 299.3,26.0 300.4,26.0C302.0,26.0 302.1,26.2 300.9,27.8C300.2,28.7 297.4,32.1 294.7,35.2C290.4,40.3 289.4,41.0 286.2,41.0z" />

</svg>
